<svg xmlns="http://www.w3.org/2000/svg" width="512" height="512" viewBox="0 0 512 512" version="1.1"><path d="M 102.015 374.485 L 96.598 379.970 99.186 382.735 C 102.526 386.302, 103.310 389.054, 101.982 392.549 C 100.971 395.207, 101.283 395.735, 107.668 402.169 C 112.118 406.654, 114.760 408.640, 115.412 407.988 C 117.445 405.955, 122.851 406.930, 126.293 409.953 L 129.656 412.905 135.319 407.183 L 140.982 401.460 124.730 385.230 C 115.791 376.303, 108.243 369, 107.955 369 C 107.667 369, 104.994 371.468, 102.015 374.485" stroke="none" fill="#ffd500" fill-rule="evenodd"/><path d="M 375.220 116.280 L 364.975 126.559 369.500 131 L 374.024 135.440 384.278 125.221 L 394.532 115.002 399.012 119.251 C 401.476 121.588, 399.679 119.563, 395.018 114.750 C 390.358 109.938, 386.301 106, 386.004 106 C 385.707 106, 380.854 110.626, 375.220 116.280 M 392.481 134.250 L 382.500 144.500 392.750 134.519 C 398.387 129.029, 403 124.417, 403 124.269 C 403 123.545, 401.752 124.730, 392.481 134.250 M 343.731 147.768 C 338.379 153.140, 334 157.988, 334 158.540 C 334 159.092, 337.829 163.353, 342.508 168.008 L 351.016 176.472 361.741 165.747 L 372.466 155.022 363.983 146.521 C 359.317 141.846, 355.042 138.016, 354.481 138.010 C 353.921 138.005, 349.083 142.396, 343.731 147.768 M 352.498 157.002 L 342.533 167.004 346.771 171.242 L 351.009 175.479 361.227 165.260 L 371.446 155.041 367.520 151.021 C 365.361 148.809, 363.339 147, 363.028 147 C 362.717 147, 357.978 151.501, 352.498 157.002 M 312.018 179.482 L 301.560 189.976 306 194.500 L 310.441 199.025 320.722 188.779 L 331.003 178.533 335.235 182.764 L 339.467 186.996 329.490 197.248 L 319.513 207.500 330 197.250 L 340.487 187.001 331.481 177.995 L 322.475 168.989 312.018 179.482 M 279.995 211.505 L 269.525 222.011 278.495 230.755 C 283.428 235.565, 285.495 237.391, 283.087 234.814 L 278.709 230.128 289.104 220.144 L 299.500 210.161 304 214.321 C 306.475 216.609, 304.685 214.548, 300.022 209.740 C 295.359 204.933, 291.301 201, 291.004 201 C 290.707 201, 285.753 205.727, 279.995 211.505 M 297.481 229.250 L 287.500 239.500 297.750 229.519 C 303.387 224.029, 308 219.417, 308 219.269 C 308 218.545, 306.752 219.730, 297.481 229.250 M 248.220 243.280 L 237.975 253.559 242.238 257.743 L 246.501 261.927 257.066 251.490 L 267.630 241.053 263.527 237.026 C 261.271 234.812, 259.208 233, 258.944 233 C 258.680 233, 253.854 237.626, 248.220 243.280 M 265.481 261.250 L 255.500 271.500 265.750 261.519 C 275.270 252.248, 276.455 251, 275.731 251 C 275.583 251, 270.971 255.613, 265.481 261.250 M 216.498 275.002 L 206.533 285.004 210.765 289.236 L 214.997 293.467 225.278 283.221 L 235.559 272.975 240 277.500 L 244.440 282.024 233.976 292.762 L 223.512 303.500 234.492 292.758 L 245.472 282.016 237.008 273.508 C 232.353 268.829, 228.076 265, 227.503 265 C 226.931 265, 221.978 269.501, 216.498 275.002 M 205.982 306.250 C 211.747 312.163, 216.585 317, 216.732 317 C 217.454 317, 216.235 315.718, 206.250 305.982 L 195.500 295.500 205.982 306.250 M 196 330.500 C 198.987 333.525, 201.657 336, 201.932 336 C 202.207 336, 199.987 333.525, 197 330.500 C 194.013 327.475, 191.343 325, 191.068 325 C 190.793 325, 193.013 327.475, 196 330.500 M 185.500 341 C 188.766 344.300, 191.662 347, 191.937 347 C 192.212 347, 189.766 344.300, 186.500 341 C 183.234 337.700, 180.338 335, 180.063 335 C 179.788 335, 182.234 337.700, 185.500 341 M 169.500 354 C 173.320 357.850, 176.671 361, 176.946 361 C 177.221 361, 174.320 357.850, 170.500 354 C 166.680 350.150, 163.329 347, 163.054 347 C 162.779 347, 165.680 350.150, 169.500 354 M 152 357.275 C 152 357.426, 155.488 360.914, 159.750 365.025 L 167.500 372.500 160.025 364.750 C 153.082 357.552, 152 356.544, 152 357.275 M 134.462 408.250 L 129.500 413.500 134.750 408.538 C 139.628 403.926, 140.459 403, 139.712 403 C 139.554 403, 137.192 405.363, 134.462 408.250 M 151.946 411.750 L 148.500 415.500 152.250 412.054 C 155.740 408.846, 156.460 408, 155.696 408 C 155.529 408, 153.842 409.688, 151.946 411.750 M 158.252 455.500 C 158.263 457.700, 158.468 458.482, 158.707 457.238 C 158.946 455.994, 158.937 454.194, 158.687 453.238 C 158.437 452.282, 158.241 453.300, 158.252 455.500" stroke="none" fill="#6b7ed9" fill-rule="evenodd"/><path d="M 384.210 125.289 L 373.975 135.559 378.265 139.770 L 382.555 143.980 392.790 133.711 L 403.025 123.441 398.735 119.230 L 394.445 115.020 384.210 125.289 M 352.498 157.002 L 342.533 167.004 346.771 171.242 L 351.009 175.479 361.227 165.260 L 371.446 155.041 367.520 151.021 C 365.361 148.809, 363.339 147, 363.028 147 C 362.717 147, 357.978 151.501, 352.498 157.002 M 320.498 189.002 L 310.533 199.004 314.771 203.242 L 319.009 207.479 329.227 197.260 L 339.446 187.041 335.520 183.021 C 333.361 180.809, 331.339 179, 331.028 179 C 330.717 179, 325.978 183.501, 320.498 189.002 M 289.090 220.158 L 278.681 230.154 283.106 234.580 L 287.531 239.005 297.778 228.723 L 308.025 218.441 303.762 214.301 L 299.500 210.161 289.090 220.158 M 256.497 252.003 L 246.532 262.006 251.031 266.505 L 255.531 271.005 265.983 260.517 L 276.435 250.030 272.514 246.015 C 270.358 243.807, 268.114 242, 267.528 242 C 266.942 242, 261.978 246.501, 256.497 252.003 M 225.222 283.277 L 214.975 293.559 219.506 298.005 L 224.036 302.452 234.258 292.229 L 244.481 282.007 239.975 277.501 L 235.469 272.995 225.222 283.277 M 185.980 305.750 L 176.500 315.500 186.250 306.020 C 195.306 297.215, 196.455 296, 195.730 296 C 195.582 296, 191.194 300.387, 185.980 305.750 M 265.762 336.707 C 267.006 336.946, 268.806 336.937, 269.762 336.687 C 270.718 336.437, 269.700 336.241, 267.500 336.252 C 265.300 336.263, 264.518 336.468, 265.762 336.707" stroke="none" fill="#8896e0" fill-rule="evenodd"/><path d="M 457 67.880 C 436.375 74.903, 418.150 81.367, 416.500 82.243 C 412.396 84.421, 406.634 90.657, 404.169 95.586 L 402.126 99.673 409.813 107.271 L 417.500 114.870 427.712 112.980 C 442.725 110.202, 443.700 109.542, 450.797 97.363 C 458.594 83.981, 469.807 76.489, 484.211 75.037 C 492.636 74.187, 495.751 72.479, 496.128 68.500 C 496.546 64.081, 495.953 55.003, 495.250 55.054 C 494.837 55.084, 477.625 60.856, 457 67.880 M 197.767 315.315 L 191.033 324.483 197.517 331.017 C 203.118 336.662, 204 338.047, 204 341.203 C 204 343.957, 203.352 345.364, 201.365 346.927 C 196.964 350.389, 194.459 349.628, 187.153 342.607 L 180.500 336.214 173.278 342.914 L 166.056 349.614 172.528 356.028 C 178.173 361.622, 179 362.916, 179 366.149 C 179 368.961, 178.365 370.354, 176.365 371.927 C 171.744 375.562, 169.487 374.714, 160.537 365.978 L 152.318 357.955 149.722 360.551 C 148.295 361.978, 146.828 364.505, 146.464 366.165 C 144.961 373.007, 149.366 387.236, 154.959 393.606 C 156.828 395.735, 158 398.170, 158 399.925 C 158 401.495, 160.852 409.017, 164.337 416.640 C 170.732 430.626, 174.991 441.776, 177.059 449.951 L 178.185 454.402 182.419 443.951 C 191.324 421.967, 200.738 406.717, 213.194 394.097 C 221.742 385.436, 230.880 379.298, 251.436 368.411 C 268.613 359.314, 275.987 353.034, 280.325 343.812 C 284.282 335.398, 284.082 334.769, 277.750 335.716 C 260.382 338.311, 243.521 334.107, 229.920 323.790 C 227.489 321.946, 223.700 319.904, 221.500 319.252 C 218.853 318.468, 215.481 316.027, 211.531 312.034 C 208.249 308.715, 205.324 306.033, 205.031 306.074 C 204.739 306.114, 201.470 310.273, 197.767 315.315" stroke="none" fill="#dbedff" fill-rule="evenodd"/><path d="M 451.500 53.479 C 431.700 60.214, 413.331 66.491, 410.680 67.428 C 408.029 68.365, 404.116 70.707, 401.986 72.632 C 397.899 76.324, 396.416 79.603, 395.117 87.826 L 394.322 92.854 405.908 104.177 C 412.280 110.405, 414.039 111.900, 409.816 107.500 L 402.139 99.500 404.178 95.500 C 406.803 90.351, 412.547 84.319, 417 82.036 C 418.925 81.049, 437.354 74.546, 457.952 67.585 C 478.551 60.624, 495.526 54.808, 495.673 54.660 C 495.821 54.513, 495.559 51.975, 495.092 49.022 C 494.237 43.607, 492.158 40.884, 489.059 41.117 C 488.201 41.181, 471.300 46.744, 451.500 53.479 M 188.473 304.115 C 173.444 319.450, 161.566 327.140, 142.413 333.934 C 130.705 338.087, 124.436 342.797, 120.580 350.337 L 117.624 356.117 134.833 373.308 L 152.043 390.500 149.618 384.500 C 145.068 373.242, 145.041 365.231, 149.540 360.733 C 151.531 358.742, 151.806 357.810, 151.115 355.401 C 150.080 351.793, 151.143 348.714, 154.151 346.607 C 157.252 344.435, 160.204 344.586, 163.372 347.078 L 166.015 349.157 169.757 346.167 C 171.816 344.522, 174.969 341.646, 176.764 339.777 C 179.747 336.669, 179.934 336.110, 178.945 333.272 C 178.089 330.817, 178.189 329.536, 179.420 327.154 C 181.217 323.680, 183.855 322.567, 188.337 323.393 C 191.366 323.952, 191.789 323.589, 198.312 314.840 L 205.125 305.703 200.854 301.351 C 198.505 298.958, 196.328 297, 196.015 297 C 195.702 297, 192.308 300.202, 188.473 304.115 M 157.208 406 C 156.650 407.375, 154.620 410.007, 152.697 411.849 L 149.201 415.197 151.600 420.438 C 155.374 428.681, 157.830 439.900, 158.891 453.739 C 159.429 460.758, 160.390 468.883, 161.027 471.796 C 161.992 476.208, 162.423 476.894, 163.612 475.907 C 165.936 473.978, 174.029 462.863, 176.182 458.643 C 178.100 454.884, 178.114 454.486, 176.547 448.248 C 174.642 440.664, 169.048 426.413, 162.710 413 C 158.519 404.131, 158.154 403.666, 157.208 406" stroke="none" fill="#b5dcff" fill-rule="evenodd"/><path d="M 452.150 5.696 C 442.691 8.929, 441.681 9.520, 440.407 12.569 C 438.082 18.133, 441.299 23.333, 447.067 23.333 C 449.820 23.333, 450.155 23.757, 451.869 29.417 C 452.883 32.763, 453.439 35.781, 453.106 36.125 C 452.308 36.949, 426.945 45.312, 426.635 44.854 C 426.504 44.659, 425.588 41.846, 424.600 38.602 L 422.804 32.704 425.902 30.279 C 430.091 27.001, 430.312 21.177, 426.365 18.073 C 424.916 16.933, 423.005 16, 422.118 16 C 419.298 16, 402.112 22.087, 400.018 23.827 C 394.757 28.201, 397.752 37, 404.502 37 C 407.702 37, 407.931 37.251, 409.429 42.404 C 411.736 50.340, 411.628 50.639, 405.750 52.515 C 390.832 57.278, 381.766 68.858, 379.536 86 L 378.820 91.500 299.166 171.252 L 219.512 251.005 217.686 248.752 C 208.970 238.001, 209.715 223.388, 219.641 210.383 C 225.276 203.001, 226.253 200.309, 225.812 193.381 C 225.331 185.829, 221.967 180.820, 214.980 177.250 C 207.115 173.232, 192.296 174.478, 180.213 180.174 C 164.611 187.529, 152.186 203.784, 128.149 248.291 C 117.182 268.597, 116.039 272.513, 120.223 275.443 C 122.569 277.087, 127.674 277.494, 129.710 276.200 C 130.376 275.777, 135.938 266.221, 142.069 254.965 C 160.780 220.616, 170.698 205.575, 178.942 199.046 C 187.867 191.977, 203.299 188, 208.522 191.422 C 209.885 192.315, 211 193.693, 211 194.484 C 211 195.275, 208.618 199.428, 205.707 203.711 C 198.798 213.880, 196.483 221.035, 196.557 232 C 196.624 241.847, 199.066 249.313, 204.585 256.543 C 206.463 259.004, 208 261.380, 208 261.823 C 208 262.266, 197.537 272.966, 184.750 285.599 C 159.226 310.817, 157.813 311.835, 138.340 319.059 C 132.435 321.250, 125.774 324.114, 123.538 325.425 C 117.429 329.005, 109.313 338.156, 105.982 345.220 C 103.710 350.038, 100.341 354.190, 91.510 363.059 C 80.457 374.160, 80 374.787, 80 378.859 C 80 384.297, 81.749 387.592, 87.401 392.802 C 92.578 397.574, 96.706 398.294, 100 395 C 103.089 391.911, 102.601 387.215, 98.782 383.275 L 95.565 379.955 101.782 373.738 L 107.999 367.521 124.499 383.999 C 133.575 393.062, 141 400.948, 141 401.523 C 141 402.869, 130.766 413, 129.406 413 C 128.838 413, 127.081 411.650, 125.500 410 C 119.020 403.237, 109.193 409.672, 113.445 417.894 C 115.651 422.159, 123.748 428.862, 127.558 429.577 C 129.727 429.984, 132.012 429.642, 134.107 428.597 C 135.877 427.714, 137.530 427.197, 137.781 427.447 C 139.751 429.418, 142.299 441.871, 143.520 455.500 C 144.309 464.300, 145.864 474.757, 146.977 478.737 C 148.090 482.718, 149 486.150, 149 486.364 C 149 486.578, 146.787 487.706, 144.082 488.869 C 128.542 495.554, 107.758 495.726, 92.500 489.295 C 82.603 485.125, 75.005 478.750, 50.874 454.375 C 27.385 430.649, 26.056 429.101, 22.089 420.854 C 9.759 395.224, 14.361 365.686, 33.808 345.629 C 41.466 337.731, 48.838 333.070, 61.720 327.981 C 80.461 320.578, 100.492 309.508, 107.094 302.906 C 111.292 298.708, 108.055 290, 102.296 290 C 100.735 290, 95.787 292.592, 90.085 296.398 C 79.104 303.727, 72.380 307.205, 59.075 312.438 C 40.588 319.707, 31.824 325.203, 21.837 335.790 C 6.390 352.165, -0.553 371.199, 0.239 395 C 0.598 405.763, 1.098 408.798, 3.840 416.842 C 9.811 434.362, 13.628 439.360, 44.163 469.648 C 68.911 494.196, 74.941 498.918, 87.856 503.864 C 98.979 508.124, 106.123 509.407, 118.500 509.369 C 132.227 509.327, 140.268 507.400, 153.500 500.981 C 174.909 490.595, 186.040 477.574, 196.940 450.168 C 204.341 431.561, 212.285 418.196, 222.497 407.172 C 230.371 398.673, 237.272 393.954, 258 382.894 C 273.304 374.728, 276.451 372.611, 283.081 366.028 C 291.621 357.548, 296.762 348.545, 298.949 338.242 C 300.124 332.702, 300.081 331.499, 298.558 327.514 C 295.324 319.046, 289.831 317.016, 277.110 319.587 C 269.658 321.093, 267.058 321.209, 261.171 320.298 C 253.759 319.151, 245.188 315.708, 241 312.194 L 238.500 310.097 328.133 220.416 L 417.766 130.735 429.133 128.808 C 435.385 127.747, 443.080 125.723, 446.234 124.310 C 452.685 121.420, 459.599 114.669, 463.052 107.892 C 468.909 96.392, 474.460 92.534, 488.101 90.485 C 499.683 88.745, 505.294 85.565, 509.308 78.466 C 512.110 73.512, 512.115 73.466, 511.586 59.208 C 510.986 43.064, 509.986 38.652, 505.762 33.527 C 499.211 25.580, 490.135 23.965, 477.126 28.433 C 473.071 29.826, 469.414 30.756, 468.999 30.500 C 468.585 30.243, 467.749 28.059, 467.141 25.646 C 466.533 23.232, 465.787 20.609, 465.483 19.816 C 465.149 18.947, 465.891 17.861, 467.355 17.078 C 469.821 15.758, 472 12.145, 472 9.376 C 472 7.207, 466.509 1.985, 464.327 2.079 C 463.322 2.122, 457.843 3.750, 452.150 5.696 M 447.500 54.384 C 426.050 61.687, 407.029 68.429, 405.230 69.367 C 400.223 71.978, 396.413 78.013, 394.981 85.602 L 393.732 92.221 405.337 103.826 L 416.941 115.431 427.075 113.683 C 442.616 111.001, 444.574 109.625, 452.275 95.966 C 455.532 90.188, 463.329 82.880, 469.657 79.674 C 474.676 77.130, 483.772 75, 489.611 75 C 491.957 75, 493.456 74.238, 495.026 72.250 C 497.077 69.654, 497.159 68.857, 496.492 58 C 495.609 43.629, 494.439 40.986, 489 41.069 C 487.625 41.090, 468.950 47.082, 447.500 54.384 M 375.230 116.269 L 364.996 126.538 373.999 135.499 L 383.002 144.460 393.001 134.499 C 398.500 129.020, 403 124.069, 403 123.497 C 403 122.482, 386.949 106, 385.961 106 C 385.688 106, 380.859 110.621, 375.230 116.269 M 343.731 147.768 C 338.379 153.140, 334 157.988, 334 158.540 C 334 159.092, 337.829 163.353, 342.508 168.008 L 351.016 176.472 361.741 165.747 L 372.466 155.022 363.983 146.521 C 359.317 141.846, 355.042 138.016, 354.481 138.010 C 353.921 138.005, 349.083 142.396, 343.731 147.768 M 312.008 179.492 L 301.540 189.996 309.998 198.498 C 314.650 203.174, 318.924 207, 319.497 207 C 320.069 207, 325.023 202.497, 330.506 196.994 L 340.474 186.988 331.475 177.988 L 322.475 168.989 312.008 179.492 M 280.002 211.498 L 269.540 221.996 277.998 230.498 C 282.650 235.174, 286.924 239, 287.497 239 C 288.830 239, 308 219.796, 308 218.460 C 308 217.470, 291.927 201, 290.961 201 C 290.688 201, 285.756 205.724, 280.002 211.498 M 248.230 243.269 L 237.996 253.538 246.999 262.499 L 256.002 271.460 266.001 261.499 C 271.500 256.020, 276 251.069, 276 250.497 C 276 249.482, 259.949 233, 258.961 233 C 258.688 233, 253.859 237.621, 248.230 243.269 M 216.494 275.006 L 206.526 285.012 215.525 294.012 L 224.525 303.011 234.992 292.508 L 245.460 282.004 237.002 273.502 C 232.350 268.826, 228.076 265, 227.503 265 C 226.931 265, 221.977 269.503, 216.494 275.006 M 185.980 305.582 C 171.177 320.543, 162.494 326.080, 142.224 333.487 C 134.383 336.351, 130.757 338.312, 126.924 341.758 C 122.227 345.981, 118 352.328, 118 355.157 C 118 355.837, 126.720 365.193, 137.377 375.947 C 160.971 399.756, 161.700 401.405, 152.744 410.690 L 148.702 414.879 150.752 419.690 C 155.109 429.916, 157.107 438.620, 158.022 451.369 C 158.987 464.807, 160.727 475.714, 162.036 476.522 C 163.446 477.394, 172.574 466.340, 176.193 459.379 C 178.160 455.596, 181.456 448.225, 183.517 443 C 191.471 422.840, 201.374 406.842, 213.444 394.653 C 222.638 385.370, 227.963 381.760, 249.947 369.907 C 269.814 359.196, 275.775 354.209, 280.811 344.090 C 284.709 336.256, 284.980 333.470, 281.750 334.448 C 280.512 334.823, 275.433 335.382, 270.463 335.690 C 263.220 336.139, 259.772 335.832, 253.089 334.142 C 244.478 331.964, 234.264 326.907, 228.692 322.061 C 226.937 320.534, 223.916 318.995, 221.981 318.641 C 219.226 318.136, 216.080 315.607, 207.498 306.998 C 201.468 300.949, 196.293 296, 195.997 296 C 195.702 296, 191.194 300.312, 185.980 305.582 M 183.315 324.016 C 182.114 324.495, 180.651 325.783, 180.065 326.878 C 177.846 331.024, 178.867 333.319, 186.225 340.726 C 192.198 346.740, 194.005 348, 196.652 348 C 200.202 348, 204 344.247, 204 340.739 C 204 338.412, 190.477 324.409, 187.500 323.653 C 186.400 323.374, 184.517 323.537, 183.315 324.016 M 153 348 C 149.074 351.926, 150.279 354.824, 159.770 364.271 C 167.081 371.549, 169.065 373, 171.697 373 C 175.202 373, 179 369.223, 179 365.736 C 179 364.579, 175.358 360.021, 170.319 354.871 C 162.847 347.235, 161.176 346, 158.319 346 C 156.333 346, 154.197 346.803, 153 348" stroke="none" fill="#040404" fill-rule="evenodd"/><path d="M 195.920 191.010 C 186.092 192.674, 177.709 198.603, 169.179 209.923 C 161.825 219.682, 156.176 229.068, 142.069 254.965 C 135.938 266.221, 130.376 275.792, 129.710 276.234 C 129.045 276.676, 126.846 276.936, 124.825 276.812 C 121.373 276.600, 120.723 277.081, 114.098 284.748 C 110.219 289.237, 107.485 293.182, 108.022 293.514 C 109.739 294.575, 109.115 300.885, 107.094 302.906 C 100.492 309.508, 80.461 320.578, 61.720 327.981 C 48.838 333.070, 41.466 337.731, 33.808 345.629 C 14.361 365.686, 9.759 395.224, 22.089 420.854 C 26.056 429.101, 27.385 430.649, 50.874 454.375 C 75.005 478.750, 82.603 485.125, 92.500 489.295 C 107.758 495.726, 128.542 495.554, 144.082 488.869 C 146.787 487.706, 149 486.578, 149 486.364 C 149 486.150, 148.090 482.718, 146.977 478.737 C 145.864 474.757, 144.309 464.300, 143.520 455.500 C 142.299 441.871, 139.751 429.418, 137.781 427.447 C 137.530 427.197, 135.877 427.714, 134.107 428.597 C 129.551 430.869, 125.107 429.726, 119.580 424.861 C 113.328 419.358, 111.529 415.790, 112.951 411.711 C 114.004 408.689, 113.825 408.374, 107.351 401.850 C 101.920 396.377, 100.331 395.288, 98.897 396.055 C 95.293 397.984, 92.017 397.057, 87.401 392.802 C 81.749 387.592, 80 384.297, 80 378.859 C 80 374.787, 80.457 374.160, 91.510 363.059 C 100.341 354.190, 103.710 350.038, 105.982 345.220 C 109.313 338.156, 117.429 329.005, 123.538 325.425 C 125.774 324.114, 132.435 321.250, 138.340 319.059 C 157.813 311.835, 159.226 310.817, 184.750 285.599 C 197.537 272.966, 208 262.266, 208 261.823 C 208 261.380, 206.463 259.004, 204.585 256.543 C 199.066 249.313, 196.624 241.847, 196.557 232 C 196.483 221.035, 198.798 213.880, 205.707 203.711 C 208.618 199.428, 211 195.291, 211 194.518 C 211 192.384, 206.927 189.986, 203.527 190.118 C 201.862 190.182, 198.439 190.584, 195.920 191.010 M 101.469 374.250 L 95.500 380.500 101.760 374.521 L 108.020 368.543 124.760 385.021 L 141.500 401.500 125.011 384.750 C 115.943 375.538, 108.279 368, 107.980 368 C 107.682 368, 104.751 370.813, 101.469 374.250" stroke="none" fill="#f45f60" fill-rule="evenodd"/></svg>