<svg xmlns="http://www.w3.org/2000/svg" width="512" height="512" viewBox="0 0 512 512" version="1.1"><path d="M 121.426 21.333 C 121.132 22.098, 121.029 25.357, 121.196 28.574 L 121.500 34.425 127 37.506 C 130.025 39.201, 139.588 44.260, 148.250 48.749 L 164 56.911 164 49.510 L 164 42.109 153.750 36.694 C 122.273 20.064, 121.968 19.919, 121.426 21.333 M 98.001 80.890 C 90.969 86.025, 89.867 88.090, 92.567 91.074 C 94.921 93.675, 97.291 93.498, 102.021 90.367 C 105.908 87.795, 106 87.599, 106 81.867 C 106 78.640, 105.662 76.033, 105.250 76.072 C 104.838 76.112, 101.575 78.280, 98.001 80.890 M 405.168 89.765 L 390.836 103.500 397.906 110.461 L 404.976 117.422 417.238 104.553 C 423.982 97.475, 430.118 90.812, 430.874 89.746 C 432.125 87.981, 431.728 87.283, 426.405 81.904 C 423.192 78.657, 420.324 76.007, 420.031 76.015 C 419.739 76.022, 413.051 82.210, 405.168 89.765 M 156.754 109.850 C 149.880 114.588, 147.796 117.856, 149.704 120.905 C 151.403 123.620, 155.651 123.377, 159.977 120.316 C 163.887 117.550, 163.958 117.389, 163.979 111.250 C 163.990 107.813, 163.887 105.045, 163.750 105.100 C 163.613 105.156, 160.464 107.293, 156.754 109.850 M 368.952 123.913 L 358.500 133.827 365.975 141.413 C 370.086 145.586, 373.739 149, 374.093 149 C 374.944 149, 393.394 130.190, 393.868 128.839 C 394.212 127.859, 381.240 114, 379.979 114 C 379.662 114, 374.700 118.461, 368.952 123.913 M 336.679 154.293 L 325.858 164.500 334.702 173.254 L 343.547 182.007 350.036 175.254 C 353.605 171.539, 358.202 166.686, 360.252 164.468 L 363.980 160.436 355.740 152.261 L 347.500 144.086 336.679 154.293 M 304 184.973 L 293.500 194.873 302.980 204.436 C 308.194 209.696, 312.721 214, 313.039 214 C 313.358 214, 318.046 209.239, 323.458 203.419 L 333.297 192.838 324.419 183.919 C 319.537 179.014, 315.307 175.016, 315.021 175.036 C 314.734 175.056, 309.775 179.528, 304 184.973 M 271.734 215.333 L 260.967 225.503 271.251 235.751 C 276.907 241.388, 281.805 246, 282.135 246 C 283.107 246, 301.474 227.014, 301.773 225.700 C 301.923 225.040, 297.648 220.149, 292.273 214.832 L 282.500 205.163 271.734 215.333 M 235.500 249.504 L 221.500 262.918 233.427 274.289 L 245.354 285.661 255.007 275.580 C 260.316 270.036, 266.289 263.670, 268.280 261.434 L 271.901 257.367 261.184 246.684 C 255.290 240.808, 250.250 236.020, 249.984 236.045 C 249.718 236.070, 243.200 242.127, 235.500 249.504 M 454.206 253.447 L 454.500 261.092 475.793 272.107 L 497.086 283.121 496.793 275.483 L 496.500 267.844 475.206 256.823 L 453.912 245.802 454.206 253.447 M 431 306.884 C 424.177 311.860, 422.744 314.601, 425.518 317.375 C 427.843 319.700, 430.833 319.388, 435.196 316.364 C 438.869 313.819, 439 313.526, 439 307.864 C 439 304.639, 438.663 302.033, 438.250 302.072 C 437.837 302.112, 434.575 304.278, 431 306.884 M 136.500 325 C 141.427 329.950, 145.683 334, 145.958 334 C 146.233 334, 142.427 329.950, 137.500 325 C 132.573 320.050, 128.317 316, 128.042 316 C 127.767 316, 131.573 320.050, 136.500 325 M 490.756 335.395 C 483.778 340.226, 482 342.066, 482 344.455 C 482 349.537, 486.937 350.393, 493.021 346.367 C 496.908 343.795, 497 343.599, 497 337.867 C 497 334.640, 496.663 332.025, 496.250 332.055 C 495.837 332.085, 493.365 333.588, 490.756 335.395 M 112.529 353.970 L 108.653 357.940 113.957 363.548 C 119.152 369.040, 119.249 369.253, 118.695 373.929 C 118.145 378.573, 118.257 378.828, 122.815 383.316 C 126.355 386.802, 127.866 387.697, 129 386.980 C 132.781 384.587, 136.083 385.893, 142.908 392.481 L 149.621 398.962 154.035 394.465 L 158.449 389.967 138.484 369.984 C 127.503 358.993, 118.043 350, 117.462 350 C 116.881 350, 114.661 351.786, 112.529 353.970 M 132.500 404 C 135.766 407.300, 138.662 410, 138.937 410 C 139.212 410, 136.766 407.300, 133.500 404 C 130.234 400.700, 127.338 398, 127.063 398 C 126.788 398, 129.234 400.700, 132.500 404 M 189.200 440.200 C 188.540 440.860, 188.032 442.097, 188.070 442.950 C 188.119 444.035, 188.372 443.907, 188.913 442.523 C 189.338 441.436, 190.769 440.243, 192.093 439.873 C 194.183 439.288, 194.230 439.186, 192.450 439.100 C 191.322 439.045, 189.860 439.540, 189.200 440.200" stroke="none" fill="#4f66d0" fill-rule="evenodd"/><path d="M 108.073 2.635 C 106.098 5.145, 106 6.484, 106 30.995 L 106 56.720 93.956 64.948 C 80.512 74.133, 77.266 77.960, 76.349 85.704 C 75.616 91.888, 77.194 97.013, 81.254 101.637 C 87.896 109.201, 97.468 110.628, 106.974 105.470 C 114.171 101.565, 119.617 96.041, 120.929 91.315 C 121.512 89.217, 121.991 79.737, 121.994 70.250 C 121.997 60.763, 122.245 53, 122.544 53 C 122.843 53, 132.293 57.784, 143.544 63.631 L 164 74.262 164 80.392 L 164 86.521 153.942 93.342 C 136.591 105.109, 133.991 108.289, 134.009 117.718 C 134.020 123.326, 138.284 131.668, 142.719 134.757 C 146.180 137.168, 151.463 139, 154.953 139 C 158.493 139, 166.650 134.848, 171.846 130.400 C 179.752 123.633, 179.462 125.466, 179.808 80 C 180.047 48.635, 179.821 38.614, 178.808 35.574 C 177.519 31.704, 177.065 31.422, 147.085 15.824 C 114.186 -1.292, 111.797 -2.100, 108.073 2.635 M 287 2 C 285.191 3.809, 285 5.333, 285 17.927 C 285 31.782, 285.014 31.866, 287.635 33.927 C 290.978 36.557, 294.022 36.557, 297.365 33.927 C 299.986 31.866, 300 31.782, 300 17.927 C 300 5.333, 299.809 3.809, 298 2 C 296.762 0.762, 294.667 0, 292.500 0 C 290.333 0, 288.238 0.762, 287 2 M 463.500 4.954 C 459.431 5.902, 456.950 7.335, 454.097 10.386 L 451.693 12.956 447.844 9.478 C 443.712 5.745, 442.108 5.340, 438.684 7.163 C 432.724 10.338, 432.468 15.382, 437.963 21.345 C 441.630 25.322, 441.805 25.767, 440.294 27.277 C 438.784 28.788, 438.409 28.688, 435.296 25.955 C 430.977 22.163, 427.663 22.183, 423.821 26.025 C 420.096 29.750, 420.529 32.832, 425.504 38 C 428.501 41.113, 428.722 41.705, 427.503 43.351 C 426.186 45.128, 425.995 45.098, 422.721 42.601 C 418.605 39.461, 415.163 39.297, 411.635 42.073 C 407.905 45.007, 408.049 49.847, 412 54.347 C 415.708 58.570, 415.720 59.272, 412.131 62.178 C 410.554 63.455, 378.716 93.306, 341.381 128.513 C 304.047 163.721, 271.099 194.756, 268.163 197.481 L 262.827 202.436 257.004 196.411 C 250.596 189.781, 248.347 184.296, 249.504 178.125 C 250.603 172.271, 252.850 168.969, 262.562 158.940 C 269.816 151.450, 272.079 148.420, 273.015 144.946 C 274.786 138.368, 272.949 131.360, 267.972 125.706 C 263.066 120.132, 258.649 118, 252.008 118 C 242.064 118, 220.788 131.135, 206.250 146.249 C 198.790 154.006, 197.632 156.747, 200.285 160.375 C 200.992 161.342, 203.440 162.384, 205.726 162.690 C 209.809 163.238, 210.024 163.110, 217.981 155.395 C 230.303 143.449, 246.395 133, 252.471 133 C 255.553 133, 259 136.234, 259 139.124 C 259 140.434, 255.551 144.855, 249.995 150.667 C 236.737 164.535, 232.795 174.113, 235.135 186.771 C 236.617 194.790, 239.301 199.581, 246.336 206.765 C 250.915 211.440, 252.221 213.374, 251.486 214.387 C 250.944 215.134, 240.260 225.355, 227.745 237.099 C 215.230 248.844, 204.727 259.284, 204.405 260.299 C 204.083 261.314, 204.067 263.124, 204.369 264.322 C 204.671 265.520, 213.402 274.938, 223.769 285.250 C 237.334 298.743, 243.268 304, 244.932 304 C 246.469 304, 249.970 301.346, 255.372 296.086 L 263.500 288.172 269.459 293.737 C 277.963 301.679, 284.429 304.444, 294.500 304.444 C 306.001 304.444, 311.635 301.597, 324.133 289.470 C 329.574 284.189, 334.741 280, 335.811 280 C 338.970 280, 343 283.834, 343 286.838 C 343 288.320, 341.238 292.547, 339.085 296.232 C 327.719 315.682, 314.100 328.215, 274.722 355.463 C 255.538 368.738, 247.618 378.253, 241.816 394.996 C 240.767 398.023, 238.138 407.827, 235.975 416.782 C 229.616 443.102, 223.538 455.499, 210.697 468.340 C 192.119 486.918, 168.500 495.104, 142.452 491.994 C 88.151 485.511, 32.889 435.435, 17.790 379.031 C 16.424 373.927, 15.611 366.970, 15.267 357.444 C 14.831 345.366, 15.056 342.198, 16.866 334.944 C 21.233 317.433, 31.723 301.026, 45.385 290.336 C 54.981 282.827, 66.788 277.358, 91.500 268.976 C 103.050 265.058, 115.650 260.476, 119.500 258.794 C 136.808 251.231, 153.487 239.176, 164.731 226.103 C 172.144 217.483, 195 183.687, 195 181.346 C 195 179.009, 191.784 174.066, 189.869 173.458 C 185.058 171.931, 183.016 173.922, 171.479 191.385 C 157.686 212.263, 150.585 220.789, 139.783 229.440 C 128.048 238.839, 114.109 245.576, 88 254.467 C 61.193 263.596, 48.337 269.527, 37.349 277.836 C 19.414 291.399, 6.338 311.922, 1.884 333.498 C -9.925 390.716, 31.142 460.108, 96 492.528 C 106.296 497.675, 114.551 500.673, 126.956 503.771 C 136.060 506.044, 139.617 506.406, 153 506.415 C 164.386 506.423, 170.321 505.968, 175.363 504.701 C 206.784 496.805, 232.243 474.323, 243.566 444.476 C 245.021 440.639, 248.378 428.825, 251.025 418.222 C 256.508 396.258, 259.885 388.175, 266.559 381.041 C 269.138 378.284, 279.974 369.879, 290.641 362.363 C 328.300 335.826, 344.401 319.718, 354.741 298.233 C 357.807 291.862, 358.185 290.240, 357.812 285.077 C 356.861 271.932, 343.756 262.565, 331.090 265.976 C 327.913 266.831, 324.279 269.475, 316.877 276.313 C 311.408 281.366, 305.053 286.512, 302.755 287.750 C 295.148 291.846, 287.653 290.277, 279.578 282.898 L 274.073 277.866 355.207 192.183 C 442.706 99.779, 456.157 86, 458.866 86 C 459.834 86, 461.919 87.350, 463.500 89 C 471.385 97.231, 481.721 86.764, 474.354 78.009 C 471.932 75.130, 471.843 74.729, 473.302 73.269 C 474.762 71.809, 475.241 71.985, 478.951 75.337 C 483.680 79.609, 486.773 79.959, 490.611 76.658 C 494.449 73.357, 494.293 68.930, 490.190 64.696 C 487.107 61.515, 487.086 61.428, 489.086 60.178 C 490.875 59.061, 491.553 59.278, 494.582 61.938 C 499.053 65.864, 502.331 66.668, 505.472 64.610 C 510.800 61.119, 511.079 56.625, 506.319 50.968 L 503.638 47.781 505.726 46.141 C 514.021 39.620, 513.960 25.753, 505.609 19.594 C 502.478 17.284, 473.651 5.567, 469 4.713 C 467.625 4.461, 465.150 4.569, 463.500 4.954 M 448 41.183 C 438.375 53.341, 430.376 63.788, 430.224 64.398 C 429.856 65.877, 442.490 78.338, 443.881 77.868 C 446.644 76.935, 496.896 34.309, 496.945 32.857 C 496.985 31.657, 492.895 29.569, 481.750 25.104 C 473.363 21.743, 466.275 19.013, 466 19.036 C 465.725 19.059, 457.625 29.026, 448 41.183 M 121.208 27.722 L 121.500 35.443 142 46.168 C 153.275 52.067, 163.081 56.917, 163.792 56.946 C 164.765 56.987, 165.012 55.102, 164.792 49.319 L 164.500 41.638 144 30.865 C 132.725 24.940, 122.919 20.072, 122.208 20.046 C 121.235 20.011, 120.988 21.908, 121.208 27.722 M 261.750 39.977 C 257.913 43.002, 257.855 48.954, 261.635 51.927 C 265.375 54.869, 275.625 54.869, 279.365 51.927 C 282.575 49.403, 282.920 44.358, 280.120 40.900 C 278.557 38.970, 277.084 38.514, 271.370 38.194 C 265.483 37.864, 264.106 38.119, 261.750 39.977 M 308 38.657 C 304.595 40.029, 303 42.397, 303 46.082 C 303 51.653, 306.409 54, 314.500 54 C 322.323 54, 326 51.614, 326 46.538 C 326 40.873, 323.266 38.656, 315.884 38.332 C 312.373 38.178, 308.825 38.324, 308 38.657 M 287.734 57.994 L 285 60.145 285 73.962 C 285 90.155, 285.913 92.400, 292.500 92.400 C 299.037 92.400, 300 90.100, 300 74.500 C 300 63.324, 299.723 60.888, 298.250 59.114 C 295.580 55.898, 291.017 55.412, 287.734 57.994 M 98.195 80.120 C 91.505 84.788, 90.915 85.479, 91.195 88.327 C 91.404 90.457, 92.327 91.900, 94.125 92.904 C 96.586 94.279, 97.067 94.166, 101.875 91.081 L 107 87.792 107 81.396 C 107 77.878, 106.662 75.005, 106.250 75.011 C 105.838 75.017, 102.213 77.316, 98.195 80.120 M 405.223 88.793 C 397.371 96.332, 390.959 102.962, 390.973 103.527 C 390.988 104.092, 394.114 107.644, 397.920 111.420 L 404.839 118.287 415.760 106.893 C 421.767 100.627, 428.174 93.784, 429.999 91.687 L 433.318 87.874 426.938 81.437 C 423.429 77.897, 420.320 75.019, 420.029 75.043 C 419.738 75.067, 413.076 81.254, 405.223 88.793 M 157 109.129 C 153.975 111.306, 150.653 113.927, 149.619 114.953 C 145.948 118.593, 150.145 124.947, 155.343 123.619 C 156.529 123.316, 159.188 121.670, 161.250 119.961 C 164.812 117.010, 165 116.557, 165 110.927 C 165 106.806, 164.619 105.026, 163.750 105.086 C 163.063 105.133, 160.025 106.952, 157 109.129 M 368.500 123.469 L 357.500 133.873 365.739 142.168 L 373.979 150.463 380.566 143.982 C 384.189 140.417, 388.987 135.330, 391.230 132.678 L 395.307 127.856 387.928 120.428 C 383.870 116.343, 380.314 113.015, 380.025 113.032 C 379.736 113.050, 374.550 117.747, 368.500 123.469 M 336.241 153.798 C 330.598 159.134, 325.986 163.960, 325.991 164.522 C 326.003 165.909, 342.259 182, 343.648 182 C 344.910 182, 364 161.678, 364 160.334 C 364 159.099, 348.672 143.989, 347.478 144.048 C 346.940 144.074, 341.883 148.462, 336.241 153.798 M 28 151 C 26.191 152.809, 26 154.333, 26 166.927 C 26 180.782, 26.014 180.866, 28.635 182.927 C 30.084 184.067, 32.273 185, 33.500 185 C 34.727 185, 36.916 184.067, 38.365 182.927 C 40.986 180.866, 41 180.782, 41 166.927 C 41 154.333, 40.809 152.809, 39 151 C 37.762 149.762, 35.667 149, 33.500 149 C 31.333 149, 29.238 149.762, 28 151 M 303.516 184.548 L 292.532 194.994 302.502 205.002 C 307.985 210.506, 312.730 214.895, 313.045 214.755 C 313.361 214.615, 318.285 209.639, 323.987 203.697 L 334.355 192.894 324.947 183.447 C 319.773 178.251, 315.306 174.023, 315.020 174.051 C 314.734 174.078, 309.557 178.802, 303.516 184.548 M 2.455 189.455 C -0.986 192.896, -0.904 198.144, 2.635 200.927 C 4.660 202.520, 6.711 203, 11.500 203 C 19.637 203, 23 200.660, 23 195 C 23 189.295, 19.650 187, 11.320 187 C 5.847 187, 4.550 187.359, 2.455 189.455 M 48.315 188.007 C 43.400 189.988, 42.409 197.603, 46.635 200.927 C 50.580 204.030, 60.864 203.881, 64.601 200.667 C 68.244 197.533, 68.201 192.430, 64.504 189.250 C 62.427 187.463, 60.716 187.013, 56.194 187.063 C 53.062 187.098, 49.517 187.523, 48.315 188.007 M 28.455 207.455 C 26.101 209.808, 26 210.442, 26 222.873 C 26 230.003, 26.280 236.565, 26.621 237.455 C 27.558 239.897, 32.602 242.138, 35.515 241.407 C 40.275 240.212, 41 237.760, 41 222.850 C 41 209.236, 40.983 209.131, 38.365 207.073 C 34.870 204.323, 31.454 204.455, 28.455 207.455 M 271.250 214.967 C 265.613 220.402, 261 225.229, 261 225.692 C 261 226.156, 265.723 231.242, 271.494 236.994 L 281.989 247.453 288.571 240.977 C 292.191 237.414, 296.989 232.329, 299.233 229.675 L 303.312 224.849 293.425 214.925 C 287.987 209.466, 283.079 205.019, 282.519 205.042 C 281.958 205.065, 276.887 209.531, 271.250 214.967 M 441.455 228.455 L 439 230.909 439 256.845 L 439 282.781 429.750 289.051 C 424.663 292.499, 418.625 296.822, 416.333 298.659 C 405.041 307.707, 407.471 325.170, 421.015 332.298 C 425.625 334.725, 427.279 335.096, 431.382 334.624 C 437.596 333.910, 448.176 327.200, 451.862 321.636 C 454.450 317.728, 454.506 317.286, 454.827 298.269 C 455.007 287.608, 455.519 279.023, 455.964 279.192 C 456.410 279.362, 465.825 284.220, 476.887 289.988 L 497 300.477 497 306.545 L 497 312.613 485.477 320.451 C 468.560 331.958, 466.338 335.002, 467.207 345.486 C 468.013 355.205, 476.052 363.688, 485.461 364.748 C 490.792 365.349, 498.020 362.243, 504.807 356.434 C 512.293 350.026, 512 352.172, 512 303.724 L 512 260.349 509.750 258.279 C 506.036 254.862, 449.594 226, 446.626 226 C 445.075 226, 442.856 227.053, 441.455 228.455 M 235.626 248.637 L 220.958 262.448 233.058 274.474 L 245.159 286.500 258.579 272.510 C 265.961 264.816, 272 258.058, 272 257.493 C 272 256.928, 267.116 251.597, 261.147 245.646 L 250.294 234.827 235.626 248.637 M 454.016 253.677 L 454.032 261.500 474.898 272.250 C 486.375 278.163, 496.042 283, 496.382 283 C 496.722 283, 496.996 279.512, 496.992 275.250 L 496.984 267.500 476.810 257 C 465.714 251.225, 456.043 246.355, 455.318 246.177 C 454.311 245.930, 454.004 247.700, 454.016 253.677 M 170.347 265.469 C 167.591 267.400, 166.982 270.052, 168.477 273.608 C 169.146 275.199, 184.210 290.675, 201.952 308 C 229.947 335.336, 234.612 339.500, 237.247 339.500 C 241.062 339.500, 244.555 335.330, 243.666 331.837 C 243.339 330.552, 228.302 314.762, 210.251 296.750 C 175.821 262.395, 175.309 261.994, 170.347 265.469 M 149.455 286.455 C 148.105 287.805, 147 289.935, 147 291.188 C 147 292.847, 156.061 302.528, 180.342 326.808 C 212.018 358.485, 213.849 360.134, 216.993 359.825 C 219.179 359.610, 220.980 358.588, 222.299 356.814 C 224.065 354.437, 224.147 353.769, 223.008 351.020 C 222.278 349.257, 207.643 334.076, 189.207 315.956 C 164.816 291.984, 156.095 284, 154.301 284 C 152.985 284, 150.805 285.105, 149.455 286.455 M 431.250 306.081 C 425.207 310.298, 424 311.602, 424 313.915 C 424 316.860, 426.661 320, 429.157 320 C 429.982 320, 432.759 318.608, 435.329 316.906 L 440 313.812 440 307.406 C 440 303.883, 439.663 301.005, 439.250 301.011 C 438.837 301.017, 435.238 303.299, 431.250 306.081 M 129.635 306.073 C 127.789 307.525, 127 309.084, 127 311.281 C 127 314.052, 130.239 317.670, 154.750 342.283 C 187.310 374.978, 193.116 380.250, 196.563 380.250 C 200.127 380.250, 203 377.271, 203 373.575 C 203 370.816, 199.193 366.659, 169.715 337.230 C 147.352 314.903, 135.748 304, 134.350 304 C 133.206 304, 131.084 304.933, 129.635 306.073 M 489.987 335.350 C 486.405 337.756, 482.867 340.456, 482.125 341.349 C 480.359 343.478, 481.423 347.621, 484.105 349.056 C 486.851 350.526, 489.768 349.694, 493.812 346.289 C 496.997 343.607, 497.113 343.260, 496.812 337.238 L 496.500 330.975 489.987 335.350 M 110.500 336.879 C 108.300 337.889, 104.176 341.186, 101.335 344.207 C 91.488 354.679, 91.773 362.051, 102.437 372.750 C 109.351 379.686, 113.192 380.808, 117 377 C 120.428 373.572, 119.544 370.422, 113.320 363.897 L 107.640 357.942 112.028 353.471 C 114.442 351.012, 116.889 349, 117.468 349 C 119.146 349, 158 388.356, 158 390.056 C 158 391.697, 151.046 399, 149.485 399 C 148.973 399, 145.754 396.225, 142.332 392.833 C 137.304 387.850, 135.494 386.667, 132.899 386.667 C 129.157 386.667, 126 389.884, 126 393.697 C 126 396.751, 136.780 408.326, 142.210 411.103 C 150.260 415.219, 158.647 412.111, 167.294 401.806 C 171.463 396.837, 172.964 391.022, 171.552 385.310 C 170.674 381.757, 127.864 338.372, 123.282 336.391 C 118.976 334.530, 115.316 334.670, 110.500 336.879 M 333 368 C 331.191 369.809, 331 371.333, 331 383.927 C 331 397.782, 331.014 397.866, 333.635 399.927 C 335.084 401.067, 337.273 402, 338.500 402 C 339.727 402, 341.916 401.067, 343.365 399.927 C 345.986 397.866, 346 397.782, 346 383.927 C 346 371.333, 345.809 369.809, 344 368 C 342.762 366.762, 340.667 366, 338.500 366 C 336.333 366, 334.238 366.762, 333 368 M 310 404.657 C 306.595 406.029, 305 408.397, 305 412.082 C 305 417.653, 308.409 420, 316.500 420 C 324.591 420, 328 417.653, 328 412.082 C 328 406.621, 325.386 404.652, 317.693 404.320 C 314.287 404.173, 310.825 404.324, 310 404.657 M 353.315 404.954 C 348.390 407.058, 347.413 414.606, 351.635 417.927 C 353.660 419.520, 355.711 420, 360.500 420 C 368.591 420, 372 417.653, 372 412.082 C 372 406.629, 369.386 404.656, 361.693 404.304 C 358.287 404.148, 354.517 404.440, 353.315 404.954 M 443.500 420.184 C 439.482 422.536, 439.065 424.124, 439.032 437.168 C 439.014 444.136, 439.280 450.565, 439.621 451.455 C 440.321 453.278, 445.056 456, 447.527 456 C 448.422 456, 450.469 454.685, 452.077 453.077 C 454.996 450.157, 455 450.139, 455 437.633 C 455 426.061, 454.829 424.921, 452.750 422.593 C 450.052 419.574, 446.238 418.580, 443.500 420.184 M 335.315 422.985 C 331.671 424.490, 331 427.263, 331 440.823 C 331 456.068, 331.995 458.400, 338.500 458.400 C 345.037 458.400, 346 456.100, 346 440.500 C 346 429.308, 345.725 426.897, 344.250 425.153 C 342.155 422.677, 338.318 421.746, 335.315 422.985 M 184.502 426.575 C 179.993 428.926, 177.908 431.085, 175.881 435.500 C 173.546 440.585, 173.549 445.427, 175.890 450.500 C 179.215 457.704, 184.461 461, 192.605 461 C 207.134 461, 215.438 444.756, 207.277 432.299 C 203.124 425.962, 191.353 423.003, 184.502 426.575 M 101.500 433.890 C 94.842 436.963, 89.970 444.106, 90.022 450.718 C 90.051 454.390, 93.138 460.950, 96.132 463.702 C 99.189 466.512, 105.124 469, 108.772 469 C 113.003 469, 121.199 464.481, 123.702 460.767 C 128.472 453.690, 127.540 443.765, 121.556 437.914 C 115.583 432.073, 108.511 430.654, 101.500 433.890 M 189.200 440.200 C 186.540 442.860, 188.597 447, 192.578 447 C 195.904 447, 197.540 444.481, 196.168 441.470 C 194.945 438.785, 191.282 438.118, 189.200 440.200 M 146.655 445.459 C 130.513 451.214, 130.437 473.419, 146.538 479.568 C 161.056 485.112, 175.643 470.048, 169.649 455.702 C 167.863 451.428, 161.978 446.365, 157.277 445.060 C 152.501 443.734, 151.375 443.776, 146.655 445.459 M 105.571 447.571 C 104.707 448.436, 104 449.754, 104 450.500 C 104 452.404, 106.810 455, 108.871 455 C 112.941 455, 114.612 448.933, 111.066 447.035 C 108.438 445.629, 107.414 445.729, 105.571 447.571 M 149.571 459.571 C 148.707 460.436, 148 461.754, 148 462.500 C 148 465.998, 153.342 468.258, 155.800 465.800 C 158.258 463.342, 155.998 458, 152.500 458 C 151.754 458, 150.436 458.707, 149.571 459.571 M 415.455 460.455 C 413.056 462.853, 412.374 466.204, 413.621 469.455 C 414.646 472.126, 419.555 474, 425.527 474 C 430.413 474, 431.539 473.615, 434.077 471.077 C 437.372 467.781, 437.639 466.137, 435.537 462.072 C 433.687 458.494, 432.333 458, 424.373 458 C 418.843 458, 417.554 458.355, 415.455 460.455 M 459.455 460.455 C 457.056 462.853, 456.374 466.204, 457.621 469.455 C 458.646 472.126, 463.555 474, 469.527 474 C 474.413 474, 475.539 473.615, 478.077 471.077 C 481.372 467.781, 481.639 466.137, 479.537 462.072 C 477.687 458.494, 476.333 458, 468.373 458 C 462.843 458, 461.554 458.355, 459.455 460.455 M 441.455 478.455 C 439.102 480.807, 439 481.445, 439 493.820 C 439 505.367, 439.219 507.009, 441.073 509.365 C 443.607 512.587, 448.644 512.917, 452.139 510.090 C 454.335 508.315, 454.524 507.364, 454.838 496.509 C 455.024 490.090, 454.900 483.738, 454.563 482.393 C 452.979 476.082, 445.941 473.968, 441.455 478.455" stroke="none" fill="#000000" fill-rule="evenodd"/><path d="M 129 23.449 C 129 23.724, 130.350 24.647, 132 25.500 C 133.650 26.353, 135 26.826, 135 26.551 C 135 26.276, 133.650 25.353, 132 24.500 C 130.350 23.647, 129 23.174, 129 23.449 M 124 36.459 C 124 36.734, 125.800 37.878, 128 39 C 130.200 40.122, 132 40.816, 132 40.541 C 132 40.266, 130.200 39.122, 128 38 C 125.800 36.878, 124 36.184, 124 36.459 M 154 36.449 C 154 36.724, 155.350 37.647, 157 38.500 C 158.650 39.353, 160 39.826, 160 39.551 C 160 39.276, 158.650 38.353, 157 37.500 C 155.350 36.647, 154 36.174, 154 36.449 M 163.991 49.295 L 164.482 57.500 164.788 50.097 C 164.956 46.025, 164.735 42.333, 164.297 41.892 C 163.859 41.451, 163.721 44.783, 163.991 49.295 M 151 50.449 C 151 50.724, 152.350 51.647, 154 52.500 C 155.650 53.353, 157 53.826, 157 53.551 C 157 53.276, 155.650 52.353, 154 51.500 C 152.350 50.647, 151 50.174, 151 50.449 M 436 71.500 C 439.543 75.075, 442.667 78, 442.942 78 C 443.217 78, 440.543 75.075, 437 71.500 C 433.457 67.925, 430.333 65, 430.058 65 C 429.783 65, 432.457 67.925, 436 71.500 M 105.500 81.905 C 105.500 85.702, 105.838 88.600, 106.250 88.345 C 106.662 88.091, 107 84.984, 107 81.441 C 107 77.898, 106.662 75, 106.250 75 C 105.838 75, 105.500 78.107, 105.500 81.905 M 413.469 81.250 L 407.500 87.500 413.761 81.521 L 420.021 75.541 426.186 81.706 C 431.733 87.253, 432.214 88.054, 430.981 89.686 C 429.669 91.421, 429.693 91.424, 431.522 89.747 C 433.386 88.038, 433.269 87.826, 426.997 81.497 C 423.455 77.923, 420.306 75, 419.998 75 C 419.689 75, 416.751 77.813, 413.469 81.250 M 396.971 96.750 L 390.500 103.500 397.250 97.029 C 400.962 93.470, 404 90.432, 404 90.279 C 404 89.543, 402.982 90.480, 396.971 96.750 M 419.477 102.250 L 411.500 110.500 419.750 102.523 C 427.412 95.115, 428.456 94, 427.727 94 C 427.576 94, 423.864 97.713, 419.477 102.250 M 397.740 110.991 L 404.981 118.464 407.240 116.019 L 409.500 113.574 407.214 115.475 L 404.928 117.375 397.714 110.447 L 390.500 103.518 397.740 110.991 M 164.320 111 C 164.320 114.575, 164.502 116.037, 164.723 114.250 C 164.945 112.463, 164.945 109.537, 164.723 107.750 C 164.502 105.963, 164.320 107.425, 164.320 111 M 375.946 116.750 L 372.500 120.500 376.301 117.004 L 380.102 113.509 387.551 121.128 C 391.648 125.319, 395 128.478, 395 128.147 C 395 127.374, 380.738 113, 379.971 113 C 379.653 113, 377.842 114.688, 375.946 116.750 M 362.995 128.505 L 357.558 134.011 365.505 142.005 C 369.877 146.402, 373.741 150, 374.094 150 C 374.446 150, 371.081 146.418, 366.617 142.040 L 358.500 134.079 363.966 128.540 C 366.972 125.493, 369.207 123, 368.932 123 C 368.657 123, 365.985 125.477, 362.995 128.505 M 383 140.500 C 378.903 144.625, 375.775 148, 376.050 148 C 376.325 148, 379.903 144.625, 384 140.500 C 388.097 136.375, 391.225 133, 390.950 133 C 390.675 133, 387.097 136.375, 383 140.500 M 342 148.500 C 339.571 150.975, 337.809 153, 338.084 153 C 338.359 153, 340.571 150.975, 343 148.500 C 345.429 146.025, 347.191 144, 346.916 144 C 346.641 144, 344.429 146.025, 342 148.500 M 355.500 152 C 359.874 156.400, 363.678 160, 363.953 160 C 364.228 160, 360.874 156.400, 356.500 152 C 352.126 147.600, 348.322 144, 348.047 144 C 347.772 144, 351.126 147.600, 355.500 152 M 329.453 160.250 L 325.500 164.500 329.750 160.547 C 333.702 156.871, 334.460 156, 333.703 156 C 333.540 156, 331.627 157.912, 329.453 160.250 M 359.946 164.750 L 356.500 168.500 360.250 165.054 C 362.313 163.158, 364 161.471, 364 161.304 C 364 160.540, 363.154 161.260, 359.946 164.750 M 334 173.500 C 338.651 178.175, 342.681 182, 342.956 182 C 343.231 182, 339.651 178.175, 335 173.500 C 330.349 168.825, 326.319 165, 326.044 165 C 325.769 165, 329.349 168.825, 334 173.500 M 348.462 177.250 L 343.500 182.500 348.750 177.538 C 351.637 174.808, 354 172.446, 354 172.288 C 354 171.541, 353.074 172.372, 348.462 177.250 M 308.966 179.750 L 303.500 185.500 309.264 180.021 L 315.028 174.541 324.246 183.759 L 333.464 192.978 326.992 199.739 L 320.520 206.500 327.495 199.755 L 334.471 193.011 325.005 183.505 C 319.799 178.277, 315.290 174, 314.986 174 C 314.681 174, 311.972 176.588, 308.966 179.750 M 295.977 191.524 L 292.561 195.048 302.769 205.257 L 312.978 215.466 315.239 213.020 L 317.500 210.574 315.203 212.484 L 312.907 214.394 303.234 204.721 L 293.561 195.048 296.977 191.524 C 298.855 189.586, 300.167 188, 299.892 188 C 299.617 188, 297.855 189.586, 295.977 191.524 M 246 207.500 C 248.987 210.525, 251.657 213, 251.932 213 C 252.207 213, 249.987 210.525, 247 207.500 C 244.013 204.475, 241.343 202, 241.068 202 C 240.793 202, 243.013 204.475, 246 207.500 M 274.971 211.750 L 268.500 218.500 275.250 212.029 C 281.520 206.018, 282.457 205, 281.721 205 C 281.568 205, 278.530 208.037, 274.971 211.750 M 292.524 215.003 C 298.011 220.780, 302.705 225.375, 302.955 225.214 C 303.206 225.054, 298.716 220.328, 292.979 214.711 L 282.547 204.500 292.524 215.003 M 237.469 227.250 L 231.500 233.500 237.750 227.531 C 241.188 224.249, 244 221.436, 244 221.281 C 244 220.542, 243.013 221.444, 237.469 227.250 M 271.211 236.478 C 277.102 242.491, 282.053 247.206, 282.212 246.955 C 282.372 246.705, 277.551 241.785, 271.501 236.023 L 260.500 225.545 271.211 236.478 M 291 237.500 C 286.903 241.625, 283.775 245, 284.050 245 C 284.325 245, 287.903 241.625, 292 237.500 C 296.097 233.375, 299.225 230, 298.950 230 C 298.675 230, 295.097 233.375, 291 237.500 M 260.500 246 C 266.531 252.050, 271.691 257, 271.966 257 C 272.241 257, 267.531 252.050, 261.500 246 C 255.469 239.950, 250.309 235, 250.034 235 C 249.759 235, 254.469 239.950, 260.500 246 M 219.971 243.750 L 213.500 250.500 220.250 244.029 C 223.963 240.470, 227 237.432, 227 237.279 C 227 236.543, 225.982 237.480, 219.971 243.750 M 240.473 244.250 L 233.500 251.500 240.750 244.527 C 247.484 238.050, 248.457 237, 247.723 237 C 247.571 237, 244.308 240.262, 240.473 244.250 M 225 258.500 C 222.571 260.975, 220.809 263, 221.084 263 C 221.359 263, 223.571 260.975, 226 258.500 C 228.429 256.025, 230.191 254, 229.916 254 C 229.641 254, 227.429 256.025, 225 258.500 M 477 257.449 C 477 257.724, 478.350 258.647, 480 259.500 C 481.650 260.353, 483 260.826, 483 260.551 C 483 260.276, 481.650 259.353, 480 258.500 C 478.350 257.647, 477 257.174, 477 257.449 M 268.437 261.250 L 265.500 264.500 268.750 261.563 C 271.779 258.825, 272.460 258, 271.687 258 C 271.515 258, 270.052 259.462, 268.437 261.250 M 210.500 297 C 228.094 314.600, 242.713 329, 242.988 329 C 243.263 329, 229.094 314.600, 211.500 297 C 193.906 279.400, 179.287 265, 179.012 265 C 178.737 265, 192.906 279.400, 210.500 297 M 222.500 285 C 232.389 294.900, 240.704 303, 240.979 303 C 241.254 303, 233.389 294.900, 223.500 285 C 213.611 275.100, 205.296 267, 205.021 267 C 204.746 267, 212.611 275.100, 222.500 285 M 255 275.500 C 250.903 279.625, 247.775 283, 248.050 283 C 248.325 283, 251.903 279.625, 256 275.500 C 260.097 271.375, 263.225 268, 262.950 268 C 262.675 268, 259.097 271.375, 255 275.500 M 474 271.449 C 474 271.724, 475.350 272.647, 477 273.500 C 478.650 274.353, 480 274.826, 480 274.551 C 480 274.276, 478.650 273.353, 477 272.500 C 475.350 271.647, 474 271.174, 474 271.449 M 238 279.500 C 241.543 283.075, 244.667 286, 244.942 286 C 245.217 286, 242.543 283.075, 239 279.500 C 235.457 275.925, 232.333 273, 232.058 273 C 231.783 273, 234.457 275.925, 238 279.500 M 322.978 290.750 L 314.500 299.500 323.250 291.022 C 331.377 283.148, 332.456 282, 331.728 282 C 331.578 282, 327.641 285.938, 322.978 290.750 M 164.500 292 C 168.874 296.400, 172.678 300, 172.953 300 C 173.228 300, 169.874 296.400, 165.500 292 C 161.126 287.600, 157.322 284, 157.047 284 C 156.772 284, 160.126 287.600, 164.500 292 M 266.958 292.250 C 271.102 296.665, 272 297.459, 272 296.708 C 272 296.548, 269.863 294.410, 267.250 291.958 L 262.500 287.500 266.958 292.250 M 254.971 296.750 L 248.500 303.500 255.250 297.029 C 258.962 293.470, 262 290.432, 262 290.279 C 262 289.543, 260.982 290.480, 254.971 296.750 M 37.946 296.750 L 34.500 300.500 38.250 297.054 C 40.313 295.158, 42 293.471, 42 293.304 C 42 292.540, 41.154 293.260, 37.946 296.750 M 179.500 327 C 197.094 344.600, 211.713 359, 211.988 359 C 212.263 359, 198.094 344.600, 180.500 327 C 162.906 309.400, 148.287 295, 148.012 295 C 147.737 295, 161.906 309.400, 179.500 327 M 310 301 C 308.075 302.054, 306.860 302.935, 307.300 302.958 C 308.359 303.014, 314 300.081, 314 299.474 C 314 298.820, 313.941 298.842, 310 301 M 438.500 307.905 C 438.500 311.702, 438.837 314.600, 439.250 314.345 C 439.663 314.091, 440 310.984, 440 307.441 C 440 303.898, 439.663 301, 439.250 301 C 438.837 301, 438.500 304.107, 438.500 307.905 M 170 337.500 C 187.869 355.375, 202.713 370, 202.988 370 C 203.263 370, 188.869 355.375, 171 337.500 C 153.131 319.625, 138.287 305, 138.012 305 C 137.737 305, 152.131 319.625, 170 337.500 M 219 325.500 C 226.961 333.475, 233.699 340, 233.974 340 C 234.249 340, 227.961 333.475, 220 325.500 C 212.039 317.525, 205.301 311, 205.026 311 C 204.751 311, 211.039 317.525, 219 325.500 M 319.978 319.750 L 311.500 328.500 320.250 320.022 C 328.377 312.148, 329.456 311, 328.728 311 C 328.578 311, 324.641 314.938, 319.978 319.750 M 147.500 359 C 159.591 371.100, 169.708 381, 169.983 381 C 170.258 381, 160.591 371.100, 148.500 359 C 136.409 346.900, 126.292 337, 126.017 337 C 125.742 337, 135.409 346.900, 147.500 359 M 483.084 340.411 C 481.782 341.797, 481.021 343.603, 481.293 344.661 C 481.734 346.369, 481.776 346.362, 481.884 344.564 C 481.948 343.500, 482.978 341.587, 484.174 340.314 C 485.370 339.042, 486.124 338, 485.849 338 C 485.574 338, 484.329 339.085, 483.084 340.411 M 101.453 343.250 L 97.500 347.500 101.750 343.547 C 104.088 341.373, 106 339.460, 106 339.297 C 106 338.540, 105.129 339.298, 101.453 343.250 M 111.985 353.515 L 107.554 358.030 113.014 363.265 L 118.474 368.500 113.529 363.255 L 108.585 358.010 112.495 354.005 C 114.646 351.802, 116.873 350, 117.444 350 C 118.015 350, 127.486 358.887, 138.491 369.750 L 158.500 389.500 138.509 369.250 C 127.515 358.113, 118.046 349, 117.468 349 C 116.889 349, 114.422 351.032, 111.985 353.515 M 256.966 368.750 L 251.500 374.500 257.250 369.034 C 262.592 363.956, 263.458 363, 262.716 363 C 262.560 363, 259.972 365.587, 256.966 368.750 M 101.958 373.250 C 104.410 375.863, 106.548 378, 106.708 378 C 107.459 378, 106.665 377.102, 102.250 372.958 L 97.500 368.500 101.958 373.250 M 245.452 384.093 C 244.572 385.794, 244.030 387.363, 244.247 387.580 C 244.464 387.797, 245.390 386.406, 246.305 384.487 C 248.361 380.175, 247.649 379.845, 245.452 384.093 M 142.500 393 C 145.766 396.300, 148.662 399, 148.937 399 C 149.212 399, 146.766 396.300, 143.500 393 C 140.234 389.700, 137.338 387, 137.063 387 C 136.788 387, 139.234 389.700, 142.500 393 M 172.232 390 C 172.232 391.925, 172.438 392.712, 172.689 391.750 C 172.941 390.788, 172.941 389.212, 172.689 388.250 C 172.438 387.288, 172.232 388.075, 172.232 390 M 153.453 395.250 L 149.500 399.500 153.750 395.547 C 157.702 391.871, 158.460 391, 157.703 391 C 157.540 391, 155.627 392.913, 153.453 395.250 M 190.250 424.689 C 191.213 424.941, 192.787 424.941, 193.750 424.689 C 194.713 424.438, 193.925 424.232, 192 424.232 C 190.075 424.232, 189.287 424.438, 190.250 424.689 M 58.958 448.250 C 63.102 452.665, 64 453.459, 64 452.708 C 64 452.548, 61.862 450.410, 59.250 447.958 L 54.500 443.500 58.958 448.250 M 163 447.313 C 163 447.485, 164.463 448.948, 166.250 450.563 L 169.500 453.500 166.563 450.250 C 163.825 447.221, 163 446.540, 163 447.313 M 189.750 461.706 C 190.988 461.944, 193.012 461.944, 194.250 461.706 C 195.488 461.467, 194.475 461.272, 192 461.272 C 189.525 461.272, 188.512 461.467, 189.750 461.706 M 117.500 466.068 C 115.850 467.125, 115.013 467.992, 115.639 467.995 C 116.266 467.998, 117.841 467.115, 119.139 466.033 C 122.112 463.556, 121.397 463.572, 117.500 466.068 M 209.946 468.750 L 206.500 472.500 210.250 469.054 C 213.740 465.846, 214.460 465, 213.696 465 C 213.529 465, 211.842 466.688, 209.946 468.750 M 189 483.500 C 186.525 484.825, 184.855 485.930, 185.290 485.955 C 186.352 486.016, 194 482.086, 194 481.480 C 194 480.817, 194.041 480.800, 189 483.500 M 149.750 492.723 C 151.537 492.945, 154.463 492.945, 156.250 492.723 C 158.037 492.502, 156.575 492.320, 153 492.320 C 149.425 492.320, 147.963 492.502, 149.750 492.723" stroke="none" fill="#050506" fill-rule="evenodd"/><path d="M 448.500 41.603 C 439.150 53.444, 431.376 63.667, 431.224 64.320 C 431.072 64.972, 433.772 68.301, 437.224 71.717 L 443.500 77.928 470 55.838 C 484.575 43.689, 496.500 33.271, 496.500 32.688 C 496.500 31.680, 468.750 19.960, 466.547 20.037 C 465.971 20.057, 457.850 29.761, 448.500 41.603 M 242.920 137.292 C 233.563 142.625, 224.433 149.582, 216.092 157.736 C 209.628 164.055, 206.989 165.135, 203.101 163.054 C 201.643 162.274, 200.515 163.177, 196.657 168.214 C 192.426 173.740, 192.124 174.480, 193.490 175.989 C 196.872 179.726, 195.461 183.351, 183.848 200.772 C 156.700 241.496, 142.059 252.451, 92 269.499 C 66.646 278.133, 56.225 282.912, 46.326 290.447 C 32.752 300.779, 21.722 317.570, 17.385 334.500 C 15.201 343.028, 14.938 363.578, 16.900 372.500 C 22.263 396.895, 34.190 419.529, 52.753 440.537 C 76.266 467.150, 109.792 486.790, 138.997 491.060 C 150.249 492.705, 166.588 491.779, 175.500 488.990 C 196.869 482.305, 214.967 467.285, 224.891 448 C 229.625 438.801, 231.929 431.774, 236.441 412.781 C 242.142 388.784, 247.263 377.954, 257.694 367.840 C 260.337 365.277, 269.475 358.337, 278 352.418 C 300.802 336.586, 308.507 330.596, 318.332 321.067 C 328.235 311.461, 335.198 302.537, 340.062 293.217 L 343.341 286.933 341.321 284.217 C 337.423 278.972, 334.992 279.850, 324.046 290.455 C 311.224 302.879, 307.813 304.500, 294.500 304.499 C 285.439 304.499, 283.991 304.231, 279.083 301.648 C 276.103 300.080, 271.351 296.608, 268.523 293.933 L 263.381 289.070 255.965 296.535 C 244.776 307.800, 245.771 308.126, 223.367 285.840 C 213.326 275.853, 204.599 266.445, 203.973 264.936 C 203.089 262.801, 203.137 261.616, 204.191 259.606 C 204.935 258.184, 215.660 247.529, 228.022 235.928 C 240.385 224.326, 250.659 214.395, 250.853 213.859 C 251.047 213.323, 248.460 210.025, 245.106 206.531 C 236.548 197.619, 234.591 192.890, 234.541 181 C 234.488 168.273, 236.217 164.677, 248.476 152.025 C 256.265 143.986, 258 141.641, 258 139.154 C 258 136.009, 255.068 133, 252.003 133 C 251.150 133, 247.062 134.931, 242.920 137.292 M 169.566 265.343 C 164.172 270.737, 164.020 270.532, 200.422 306.922 C 229.776 336.266, 234.218 340.333, 236.909 340.333 C 241.220 340.333, 244 337.493, 244 333.089 C 244 329.695, 242.127 327.617, 211.250 296.763 C 175.462 261, 174.576 260.333, 169.566 265.343 M 152 283.719 C 148.722 284.903, 147 287.385, 147 290.925 C 147 294.340, 148.838 296.375, 180.285 327.770 C 216.370 363.797, 216.327 363.764, 221.545 358.545 C 224.210 355.881, 224.744 351.484, 222.705 349 C 218.107 343.399, 157.102 284.127, 155.500 283.705 C 154.400 283.415, 152.825 283.422, 152 283.719 M 129.337 305.477 C 126.576 307.411, 125.632 311.423, 127.227 314.447 C 127.927 315.775, 143.196 331.293, 161.159 348.931 C 196.388 383.524, 196.491 383.600, 201.545 378.545 C 206.785 373.306, 206.824 373.357, 170.733 337.267 C 141.776 308.310, 137.077 304, 134.456 304 C 132.800 304, 130.496 304.665, 129.337 305.477 M 113.242 335.251 C 110.149 335.883, 107.373 337.612, 103.104 341.564 C 96.347 347.820, 94 352.057, 94 358 C 94 363.884, 96.241 367.971, 103.002 374.420 C 109.017 380.158, 113.065 381.535, 115.819 378.781 C 116.778 377.822, 118.107 378.630, 122.042 382.566 C 126.812 387.336, 126.995 387.716, 125.954 390.702 C 124.462 394.983, 126.212 398.098, 134.428 405.784 C 146.246 416.838, 153.239 416.561, 164.860 404.577 C 172.382 396.819, 173.837 393.344, 172.533 386.250 C 171.946 383.055, 168.560 379.194, 149.672 360.178 C 137.477 347.901, 126.611 337.369, 125.524 336.772 C 122.114 334.901, 117.656 334.348, 113.242 335.251 M 184.384 425.913 C 176.524 429.483, 171.879 439.076, 174.054 447.250 C 176.611 456.864, 184.914 462.763, 194.320 461.649 C 209.519 459.848, 216.481 441.646, 206.186 430.624 C 200.336 424.360, 191.844 422.525, 184.384 425.913 M 100.071 433.752 C 98.185 434.713, 95.280 437.204, 93.616 439.287 C 89.659 444.240, 88.798 453.539, 91.795 458.975 C 97.613 469.530, 111.894 472.422, 120.572 464.802 C 125.404 460.560, 127.143 456.775, 127.143 450.500 C 127.143 439.469, 119.486 431.998, 108.185 432.002 C 105.608 432.002, 101.957 432.790, 100.071 433.752 M 189.667 440.667 C 188.357 441.976, 189.032 444.947, 190.862 445.926 C 193.561 447.371, 196.467 445.048, 195.555 442.174 C 194.887 440.070, 191.206 439.128, 189.667 440.667 M 144.500 445.665 C 136.904 449.679, 133.588 455.634, 134.205 464.156 C 134.938 474.294, 142.363 480.995, 152.864 480.998 C 159.871 481, 165.357 477.953, 168.741 472.179 C 174.511 462.333, 170.052 448.980, 159.685 445.064 C 155.615 443.526, 147.976 443.828, 144.500 445.665 M 105.930 448.584 C 104.154 450.724, 105.941 453.500, 109.095 453.500 C 111.816 453.500, 112.843 450.721, 110.960 448.452 C 109.392 446.562, 107.568 446.610, 105.930 448.584 M 149.930 460.584 C 148.154 462.724, 149.941 465.500, 153.095 465.500 C 155.816 465.500, 156.843 462.721, 154.960 460.452 C 153.392 458.562, 151.568 458.610, 149.930 460.584" stroke="none" fill="#fa47b1" fill-rule="evenodd"/></svg>