<svg xmlns="http://www.w3.org/2000/svg" width="512" height="512" viewBox="0 0 512 512" version="1.1"><path d="M 307.310 18.053 C 305.556 19.190, 303.193 22.035, 302.060 24.376 C 300.039 28.551, 300 29.978, 300 100.316 L 300 172 310.019 172 L 320.038 172 319.769 98.250 C 319.504 25.640, 319.468 24.438, 317.409 20.500 C 314.915 15.728, 311.989 15.019, 307.310 18.053 M 163.206 40.143 C 161.394 41.303, 159.032 43.977, 157.956 46.086 C 156.046 49.830, 156 52.819, 156 173.329 C 156 305.330, 155.983 304.827, 160.967 319.500 C 162.088 322.800, 167.064 333.600, 172.025 343.500 C 176.986 353.400, 181.710 364.182, 182.523 367.460 C 183.387 370.946, 184 378.108, 184 384.710 L 184 396 194.066 396 C 204.963 396, 207.594 396.802, 209.023 400.561 C 209.916 402.909, 210.298 402.999, 219.225 402.961 L 228.500 402.923 230.520 399.711 L 232.541 396.500 276.270 396.239 L 320 395.979 320.017 384.739 C 320.038 371.236, 321.849 361.939, 325.959 354.230 C 327.767 350.840, 336.367 340.332, 347.018 328.500 C 361.758 312.125, 365.771 307.009, 369.161 300.275 C 372.980 292.690, 373.338 291.290, 373.766 282.275 C 374.190 273.357, 373.690 269.696, 368.058 240.500 C 360.055 199.007, 359.388 196.205, 356.447 191.750 L 353.972 188 309.236 188.004 C 266.360 188.007, 264.364 188.090, 261.241 189.995 C 251.521 195.921, 251.976 209.276, 262.065 214.165 C 264.453 215.323, 274.030 216.649, 293.500 218.516 C 325.109 221.548, 328.484 222.168, 330.129 225.242 C 333.033 230.667, 331.961 232.373, 315.297 248.848 C 305.252 258.779, 297.015 267.973, 292.762 274 C 284.246 286.070, 274.214 305.500, 269.545 318.968 C 265.246 331.367, 264.009 333, 258.918 333 C 256.033 333, 254.657 332.380, 253.073 330.365 C 250.371 326.931, 250.435 325.911, 254.048 314.840 C 262.117 290.108, 278.640 262.997, 297.368 243.757 C 304.094 236.848, 304.668 235.966, 302.703 235.564 C 301.491 235.316, 291.301 234.199, 280.058 233.080 C 257.437 230.830, 251.963 229.139, 246.251 222.633 L 243.365 219.346 239.563 222.632 C 232.171 229.022, 219.696 231.058, 209.238 227.581 C 202.180 225.234, 193.985 217.695, 190.966 210.770 C 189.409 207.201, 188.519 202.837, 188.208 197.250 C 187.819 190.254, 187.485 189, 186.009 189 C 183.372 189, 178.926 185.067, 177.379 181.364 C 176.256 178.676, 175.998 166.057, 175.990 113.282 L 175.980 48.500 173.536 43.250 C 170.739 37.242, 168.696 36.628, 163.206 40.143 M 211.206 125.143 C 209.394 126.303, 207.032 128.977, 205.956 131.086 C 204.131 134.663, 204 137.142, 204 168 C 204 198.932, 204.128 201.330, 205.969 204.939 C 208.191 209.294, 213.876 213.305, 217.142 212.822 C 218.489 212.622, 220.111 210.979, 221.408 208.500 C 223.398 204.695, 223.514 202.776, 223.787 169.170 L 224.073 133.840 221.592 128.420 C 218.757 122.227, 216.749 121.593, 211.206 125.143 M 259.206 125.118 C 252.727 129.315, 252 132.387, 252 155.567 C 252 174.847, 252.116 176.165, 253.750 175.472 C 259.809 172.903, 263.052 172.083, 267.307 172.044 L 272.114 172 271.807 151.750 C 271.530 133.501, 271.293 131.105, 269.409 127.500 C 266.900 122.700, 263.988 122.021, 259.206 125.118 M 184.214 486.750 L 184.500 496.500 252.250 496.757 L 320 497.014 320 487.007 L 320 477 251.964 477 L 183.928 477 184.214 486.750" stroke="none" fill="#ffeee6" fill-rule="evenodd"/><path d="M 56.451 41.375 C 60.053 49.006, 63 56.069, 63 57.069 C 63 58.070, 61.944 60.116, 60.653 61.617 C 58.317 64.333, 58.229 64.348, 40.461 65.139 C 30.646 65.576, 22.027 66.160, 21.307 66.436 C 20.588 66.711, 20 67.811, 20 68.878 C 20 70.020, 31.110 83.002, 47 100.426 C 61.850 116.710, 74 129.853, 74 129.631 C 74 129.410, 69.050 119.001, 63 106.500 C 56.950 93.999, 52 82.972, 52 81.996 C 52 81.020, 52.859 79.159, 53.909 77.861 C 55.754 75.579, 56.410 75.483, 73.553 75 C 89.026 74.564, 91.428 74.277, 92.389 72.749 C 93.336 71.244, 90.423 67.936, 71.697 49.249 L 49.902 27.500 56.451 41.375 M 439.998 49.502 C 421.564 67.951, 418.669 71.253, 419.613 72.752 C 420.572 74.276, 422.988 74.564, 438.447 75 C 455.590 75.483, 456.246 75.579, 458.091 77.861 C 459.141 79.159, 460 81.037, 460 82.034 C 460 83.031, 454.814 94.542, 448.476 107.614 C 442.138 120.686, 437.120 131.183, 437.325 130.941 C 437.530 130.698, 449.916 117.072, 464.849 100.660 C 480.808 83.119, 492 70.019, 492 68.878 C 492 67.811, 491.412 66.711, 490.693 66.436 C 489.973 66.160, 481.354 65.576, 471.539 65.139 C 453.771 64.348, 453.683 64.333, 451.347 61.617 C 448.443 58.241, 448.404 56.089, 451.148 50.710 C 453.975 45.171, 461.940 28, 461.683 28 C 461.573 28, 451.814 37.676, 439.998 49.502 M 47.523 382.756 C 16.089 417.325, 16.189 417.144, 28 418.119 C 32.125 418.460, 40 418.804, 45.500 418.884 C 56.436 419.043, 59.623 420.075, 61.943 424.207 C 63.633 427.218, 63.725 426.940, 54.573 446.500 L 49.894 456.500 71.693 434.751 C 90.423 416.064, 93.336 412.756, 92.389 411.251 C 91.428 409.723, 89.026 409.436, 73.553 409 C 56.410 408.517, 55.754 408.421, 53.909 406.139 C 52.859 404.841, 52 402.931, 52 401.896 C 52 400.860, 57.141 389.435, 63.424 376.506 C 69.707 363.578, 74.769 353.020, 74.674 353.045 C 74.578 353.069, 62.360 366.440, 47.523 382.756 M 448.459 376.266 C 454.807 389.327, 460 400.860, 460 401.896 C 460 402.931, 459.141 404.841, 458.091 406.139 C 456.246 408.421, 455.590 408.517, 438.447 409 C 422.974 409.436, 420.572 409.723, 419.611 411.251 C 418.664 412.756, 421.576 416.065, 440.291 434.751 L 462.073 456.500 458.663 448.971 C 456.787 444.830, 453.845 438.656, 452.126 435.250 C 448.375 427.819, 448.267 425.963, 451.376 422.349 C 453.749 419.590, 453.778 419.585, 471.626 418.773 C 481.457 418.326, 490.063 417.758, 490.750 417.511 C 494.725 416.085, 492.460 413.346, 437.823 353.509 C 437.326 352.965, 442.112 363.205, 448.459 376.266" stroke="none" fill="#ffd15b" fill-rule="evenodd"/><path d="M 49.756 27.664 C 50.447 27.943, 50.713 28.695, 50.346 29.335 C 49.979 29.976, 50.068 30.146, 50.544 29.713 C 51.019 29.280, 60.879 38.280, 72.454 49.713 L 93.500 70.500 72.009 48.750 C 60.189 36.787, 50.064 27.036, 49.509 27.079 C 48.954 27.122, 49.065 27.386, 49.756 27.664 M 299.490 101 L 299.500 172.500 319.751 172.532 L 340.001 172.564 320.007 172.261 L 300.013 171.959 299.747 100.729 L 299.480 29.500 299.490 101 M 332.469 87.500 C 332.469 119.950, 332.595 133.080, 332.750 116.678 C 332.904 100.277, 332.904 73.727, 332.749 57.678 C 332.595 41.630, 332.469 55.050, 332.469 87.500 M 432.487 56.250 L 418.500 70.500 432.750 56.513 C 445.988 43.520, 447.453 42, 446.737 42 C 446.592 42, 440.179 48.412, 432.487 56.250 M 155.484 173 C 155.484 240.375, 155.604 267.938, 155.750 234.250 C 155.896 200.563, 155.896 145.438, 155.750 111.750 C 155.604 78.063, 155.484 105.625, 155.484 173 M 188.475 126.500 C 188.475 167.750, 188.598 184.771, 188.750 164.324 C 188.901 143.877, 188.901 110.127, 188.750 89.324 C 188.599 68.521, 188.475 85.250, 188.475 126.500 M 48.264 64.718 C 49.784 64.947, 52.034 64.941, 53.264 64.704 C 54.494 64.467, 53.250 64.279, 50.500 64.286 C 47.750 64.294, 46.744 64.488, 48.264 64.718 M 459.264 64.718 C 460.784 64.947, 463.034 64.941, 464.264 64.704 C 465.494 64.467, 464.250 64.279, 461.500 64.286 C 458.750 64.294, 457.744 64.488, 459.264 64.718 M 24.264 65.718 C 25.784 65.947, 28.034 65.941, 29.264 65.704 C 30.494 65.467, 29.250 65.279, 26.500 65.286 C 23.750 65.294, 22.744 65.488, 24.264 65.718 M 482.750 65.706 C 483.988 65.944, 486.012 65.944, 487.250 65.706 C 488.488 65.467, 487.475 65.272, 485 65.272 C 482.525 65.272, 481.512 65.467, 482.750 65.706 M 203.447 168 C 203.447 185.875, 203.582 193.188, 203.748 184.250 C 203.914 175.313, 203.914 160.688, 203.748 151.750 C 203.582 142.813, 203.447 150.125, 203.447 168 M 251.423 156.500 C 251.424 168.050, 251.570 172.638, 251.747 166.696 C 251.924 160.753, 251.923 151.303, 251.745 145.696 C 251.567 140.088, 251.422 144.950, 251.423 156.500 M 284.225 153.715 L 284 171.930 273.750 172.254 L 263.500 172.578 273.781 172.789 C 281.391 172.945, 284.191 172.666, 284.556 171.715 C 284.827 171.008, 284.914 162.571, 284.749 152.965 L 284.450 135.500 284.225 153.715 M 236.446 168.500 C 236.447 186.100, 236.583 193.159, 236.749 184.187 C 236.914 175.215, 236.914 160.815, 236.748 152.187 C 236.581 143.559, 236.446 150.900, 236.446 168.500 M 287.750 187.749 C 300.538 187.907, 321.463 187.907, 334.250 187.749 C 347.038 187.591, 336.575 187.461, 311 187.461 C 285.425 187.461, 274.963 187.591, 287.750 187.749 M 195 217.313 C 195 217.485, 196.463 218.948, 198.250 220.563 L 201.500 223.500 198.563 220.250 C 195.825 217.221, 195 216.540, 195 217.313 M 310.469 252.250 L 304.500 258.500 310.750 252.531 C 316.556 246.987, 317.458 246, 316.719 246 C 316.564 246, 313.751 248.813, 310.469 252.250 M 386.310 278.500 C 386.315 281.800, 386.502 283.029, 386.725 281.232 C 386.947 279.435, 386.943 276.735, 386.715 275.232 C 386.486 273.729, 386.304 275.200, 386.310 278.500 M 332.382 384.500 C 332.384 391.100, 332.546 393.670, 332.741 390.211 C 332.937 386.752, 332.936 381.352, 332.738 378.211 C 332.540 375.070, 332.380 377.900, 332.382 384.500 M 183.378 385 C 183.378 391.325, 183.541 393.913, 183.739 390.750 C 183.937 387.587, 183.937 382.413, 183.739 379.250 C 183.541 376.087, 183.378 378.675, 183.378 385 M 168.435 436 C 168.435 450.025, 168.575 455.762, 168.747 448.750 C 168.919 441.738, 168.919 430.262, 168.747 423.250 C 168.575 416.238, 168.435 421.975, 168.435 436 M 334.783 435.999 L 335.067 461 341.033 461 L 347 461 347 436 L 347 411 340.750 410.999 L 334.500 410.999 334.783 435.999 M 423 418.500 C 424.866 420.425, 426.617 422, 426.892 422 C 427.167 422, 425.866 420.425, 424 418.500 C 422.134 416.575, 420.383 415, 420.108 415 C 419.833 415, 421.134 416.575, 423 418.500 M 26.250 418.716 C 27.763 418.945, 30.238 418.945, 31.750 418.716 C 33.263 418.487, 32.025 418.300, 29 418.300 C 25.975 418.300, 24.738 418.487, 26.250 418.716 M 480.264 418.718 C 481.784 418.947, 484.034 418.941, 485.264 418.704 C 486.494 418.467, 485.250 418.279, 482.500 418.286 C 479.750 418.294, 478.744 418.488, 480.264 418.718 M 50.762 419.707 C 52.006 419.946, 53.806 419.937, 54.762 419.687 C 55.718 419.437, 54.700 419.241, 52.500 419.252 C 50.300 419.263, 49.518 419.468, 50.762 419.707 M 457.762 419.707 C 459.006 419.946, 460.806 419.937, 461.762 419.687 C 462.718 419.437, 461.700 419.241, 459.500 419.252 C 457.300 419.263, 456.518 419.468, 457.762 419.707 M 183.209 486.250 L 183.419 496.500 183.746 486.750 L 184.072 477 258 477 L 331.928 477 332.254 486.750 L 332.581 496.500 332.791 486.250 L 333 476 258 476 L 183 476 183.209 486.250" stroke="none" fill="#7ca1b1" fill-rule="evenodd"/><path d="M 209.245 405.362 C 209.170 406.386, 208.339 408.073, 207.399 409.112 C 205.842 410.832, 204.058 411, 187.345 411 L 169 411 169 436 L 169 461 252.017 461 L 335.035 461 334.767 436.250 L 334.500 411.500 283.520 411 L 232.541 410.500 230.520 407.335 C 228.513 404.192, 228.437 404.169, 218.942 403.835 C 210.205 403.529, 209.372 403.660, 209.245 405.362 M 195.174 431.314 C 193.978 432.587, 193 434.858, 193 436.360 C 193 439.834, 197.090 444, 200.500 444 C 203.758 444, 208 439.860, 208 436.680 C 208 429.983, 199.691 426.507, 195.174 431.314 M 233.073 431.635 C 229.203 436.554, 231.457 442.406, 237.684 443.609 C 244.186 444.864, 248.751 435.751, 244 431 C 241.022 428.022, 235.670 428.333, 233.073 431.635 M 272 431 C 269.022 433.978, 269.333 439.330, 272.635 441.927 C 275.649 444.298, 276.914 444.452, 280.385 442.870 C 283.694 441.363, 285.396 437.173, 284.093 433.745 C 282.246 428.887, 275.618 427.382, 272 431 M 310.057 430.943 C 307.220 433.780, 307.396 438.487, 310.455 441.545 C 313.292 444.383, 314.985 444.576, 318.966 442.517 C 325.434 439.173, 323.149 429.829, 315.708 429.193 C 313.126 428.972, 311.535 429.465, 310.057 430.943" stroke="none" fill="#8ebac5" fill-rule="evenodd"/><path d="M 305.882 1.321 C 297.131 4.592, 290.401 10.746, 286.606 18.949 C 284.583 23.322, 284.488 25.212, 284.201 67.179 L 283.903 110.859 279.701 108.951 C 273.452 106.114, 262.031 106.305, 255.500 109.355 C 252.750 110.639, 249.037 112.924, 247.250 114.434 L 244 117.178 240.750 114.434 C 238.963 112.924, 235.250 110.639, 232.500 109.355 C 225.976 106.308, 214.547 106.115, 208.311 108.946 L 204.123 110.847 203.811 78.174 L 203.500 45.500 200.561 39.696 C 197.324 33.302, 192.368 28.301, 185.795 24.796 C 182.184 22.870, 179.987 22.506, 172 22.508 C 163.642 22.509, 161.891 22.830, 157.437 25.177 C 151.388 28.364, 145.569 34.536, 142.637 40.878 L 140.500 45.500 140.235 170.292 C 139.946 306.031, 139.910 304.991, 145.523 323 C 146.980 327.675, 151.726 338.357, 156.071 346.737 C 166.789 367.412, 168 371.292, 168 384.968 C 168 395.884, 167.975 396, 165.648 396 C 162.217 396, 156.765 400.013, 154.752 404.020 C 153.427 406.655, 153.003 409.988, 153.002 417.750 L 153 428 142.750 428.015 C 131.406 428.031, 128.226 429.045, 126.188 433.295 C 124.654 436.494, 125.319 439.288, 128.267 442.034 C 130.107 443.748, 131.824 444, 141.689 444 L 153 444 153 454.566 C 153 460.412, 153.501 466.107, 154.122 467.316 C 156.214 471.387, 160.390 475.028, 164.119 476.032 L 167.833 477.032 168.167 488.844 C 168.472 499.667, 168.723 500.992, 171.161 504.672 C 176.288 512.410, 171.435 512, 258 512 C 344.565 512, 339.712 512.410, 344.839 504.672 C 347.270 501.003, 347.528 499.653, 347.829 489.053 L 348.157 477.450 353.329 474.975 C 360.889 471.357, 363 466.732, 363 453.788 L 363 444 374.045 444 C 384.439 444, 385.236 443.855, 387.545 441.545 C 389.944 439.147, 390.626 435.796, 389.379 432.545 C 388.131 429.294, 383.483 428, 373.050 428 L 363 428 363 418.468 C 363 404.764, 359.391 397.914, 351.378 396.411 L 348 395.777 348 383.494 C 348 369.204, 349.957 361.185, 355.225 353.884 C 357.026 351.388, 365.475 341.588, 374 332.107 C 382.525 322.625, 391.128 312.409, 393.119 309.405 C 398.230 301.690, 401.140 292.233, 401.707 281.500 C 402.140 273.300, 401.518 269.115, 394.701 234.392 C 390.586 213.432, 386.325 194.307, 385.233 191.892 C 382.085 184.933, 376.603 179.421, 369.218 175.792 L 362.520 172.500 331.010 172.500 L 299.500 172.500 299.209 103 C 299.049 64.775, 299.192 31.569, 299.526 29.208 C 300.617 21.516, 308.172 15, 316 15 C 322.995 15, 330.092 20.347, 332.020 27.069 C 332.610 29.126, 333 53.700, 333 88.809 C 333 124.940, 333.372 147.827, 333.979 148.961 C 334.517 149.967, 336.334 151.270, 338.017 151.856 C 341.924 153.218, 345.454 151.732, 346.962 148.091 C 347.729 146.240, 347.976 127.055, 347.780 84.470 L 347.500 23.500 344.720 17.839 C 341.642 11.571, 336.327 6.241, 329.795 2.871 C 324.442 0.109, 311.390 -0.737, 305.882 1.321 M 36.020 3.752 C 30.945 6.301, 27.706 11.566, 28.321 16.264 C 28.592 18.334, 31.857 26.320, 35.576 34.011 C 39.295 41.702, 42.005 48.328, 41.597 48.736 C 41.190 49.144, 35.601 49.727, 29.178 50.033 C 16.631 50.629, 13.581 51.622, 8.814 56.661 C 3.964 61.787, 2.573 69.722, 5.374 76.282 C 6.928 79.920, 72.274 152.277, 77.142 155.750 C 82.907 159.863, 91.408 158.146, 95.713 152 C 99.383 146.760, 98.273 142.987, 85.250 116.429 C 78.513 102.689, 73 91.122, 73 90.724 C 73 90.326, 77.696 90, 83.435 90 C 89.174 90, 95.137 89.521, 96.685 88.936 C 100.189 87.613, 104.704 83.409, 106.672 79.639 C 108.645 75.860, 108.658 67.154, 106.696 63.451 C 104.410 59.138, 49.002 4.281, 45.685 3.047 C 41.796 1.601, 40.048 1.728, 36.020 3.752 M 466 3.058 C 462.802 4.367, 407.390 59.515, 405.291 63.477 C 403.275 67.283, 403.262 75.681, 405.268 79.523 C 407.290 83.398, 411.773 87.598, 415.315 88.936 C 416.863 89.521, 422.826 90, 428.565 90 C 434.304 90, 439.004 90.338, 439.009 90.750 C 439.014 91.162, 433.501 102.718, 426.759 116.429 C 413.570 143.248, 412.646 146.478, 416.489 152.344 C 420.324 158.196, 429.138 159.830, 434.859 155.750 C 439.554 152.401, 504.562 80.442, 506.410 76.549 C 509.478 70.082, 508.154 61.911, 503.186 56.661 C 498.419 51.622, 495.369 50.629, 482.822 50.033 C 476.399 49.727, 470.810 49.144, 470.403 48.736 C 469.995 48.328, 472.705 41.702, 476.424 34.011 C 480.143 26.320, 483.393 18.334, 483.646 16.264 C 484.710 7.544, 474.218 -0.308, 466 3.058 M 55.714 40.750 C 65.048 60.288, 64.541 62.942, 51.240 64.153 C 46.983 64.541, 38.695 64.890, 32.821 64.929 C 24.517 64.984, 21.794 65.349, 20.571 66.571 C 17.806 69.336, 14.430 65.137, 56.880 111.719 C 66.513 122.290, 74.558 130.776, 74.757 130.576 C 74.956 130.377, 71.651 123.303, 67.412 114.857 C 54.534 89.198, 52.055 83.141, 53.149 80.003 C 54.681 75.607, 57.192 75.017, 75.500 74.749 L 92.500 74.500 92.839 72.098 C 93.119 70.121, 89.410 65.924, 71.848 48.348 C 60.116 36.607, 50.209 27, 49.831 27 C 49.453 27, 52.101 33.188, 55.714 40.750 M 440.697 48.141 C 421.995 66.265, 418.936 69.642, 419.197 71.885 L 419.500 74.500 437.833 75 C 464.064 75.715, 463.906 75.208, 447.992 107.785 C 441.938 120.178, 437.128 130.461, 437.303 130.636 C 437.662 130.995, 491.081 72.510, 492.252 70.478 C 493.362 68.548, 492.162 66.278, 489.681 65.612 C 488.481 65.291, 483.225 64.989, 478 64.943 C 472.775 64.896, 465.017 64.541, 460.760 64.153 C 447.459 62.942, 446.952 60.288, 456.286 40.750 C 459.899 33.188, 462.775 27.003, 462.678 27.006 C 462.580 27.009, 452.688 36.520, 440.697 48.141 M 163.500 39.426 C 161.300 40.750, 158.600 43.333, 157.500 45.166 C 155.528 48.453, 155.500 50.274, 155.504 175.500 L 155.508 302.500 158.220 312.500 C 160.120 319.508, 163.771 328.184, 170.425 341.500 C 175.647 351.950, 180.613 362.944, 181.460 365.932 C 182.467 369.482, 183 375.598, 183 383.593 L 183 395.823 194.090 396.162 C 204.332 396.474, 205.327 396.681, 207.090 398.861 C 209.846 402.267, 209.547 406.425, 206.365 408.927 C 203.923 410.849, 202.425 411, 185.865 411 L 168 411 168 436 L 168 461 257.500 461 L 347 461 347 436 L 347 411 290.500 411 C 235.333 411, 233.953 410.953, 232 409 C 229.022 406.022, 229.333 400.670, 232.635 398.073 C 235.219 396.040, 236.215 396, 284.030 396 L 332.790 396 333.249 380.250 C 333.973 355.334, 335.922 351.454, 362.497 322 C 372.771 310.614, 380.258 301.385, 381.969 298 C 384.923 292.156, 387 284.105, 387 278.495 C 387 274.759, 373.622 204.445, 371.935 199.316 C 370.535 195.057, 364.056 189.362, 359.092 188.025 C 356.405 187.301, 339.815 187.034, 309.107 187.221 C 264.470 187.492, 263.065 187.559, 260.384 189.562 C 253.597 194.631, 251.709 202.392, 255.629 209.104 C 259.309 215.406, 261.115 215.873, 295.666 219.447 C 325.286 222.512, 327.479 222.873, 329.180 224.974 C 332.987 229.676, 331.961 231.408, 316.166 246.926 C 291.650 271.012, 278.294 291.405, 268.963 319 C 264.486 332.241, 260.511 335.550, 254.635 330.927 C 251.169 328.201, 251.248 325.361, 255.112 313.807 C 263.306 289.306, 278.887 263.926, 297.917 244.079 C 302.358 239.447, 305.881 235.550, 305.746 235.419 C 305.611 235.287, 296.050 234.217, 284.500 233.040 C 272.950 231.864, 261.918 230.484, 259.985 229.975 C 255.537 228.804, 247.471 223.727, 245.796 221.045 C 244.133 218.381, 242.851 218.465, 240.076 221.419 C 233.464 228.457, 217.598 230.712, 207.230 226.087 C 200.617 223.137, 192.802 214.803, 190.606 208.357 C 189.188 204.194, 188.999 194.874, 188.994 128.572 C 188.991 80.017, 188.624 52.186, 187.956 49.781 C 184.919 38.846, 172.912 33.762, 163.500 39.426 M 211.500 124.426 C 203.448 129.271, 203.500 128.987, 203.500 168 C 203.500 202.477, 203.502 202.503, 205.851 206.281 C 212.168 216.442, 227.048 216.437, 234.017 206.272 L 236.500 202.651 236.828 171.576 C 237.201 136.314, 236.703 132.002, 231.714 127.282 C 229.947 125.609, 227.517 123.736, 226.316 123.120 C 222.587 121.208, 215.863 121.801, 211.500 124.426 M 259.500 124.426 C 251.990 128.945, 251.543 130.602, 251.180 155.250 C 251.004 167.213, 251.062 177, 251.308 177 C 251.554 177, 253.498 176.228, 255.628 175.284 C 258.310 174.095, 263.340 173.404, 272 173.034 L 284.500 172.500 284.500 152.924 C 284.500 133.717, 284.453 133.279, 282.017 129.727 C 276.769 122.074, 267.166 119.813, 259.500 124.426 M 60.500 223.131 C 54.598 226.430, 54.470 231.384, 60.127 237.522 L 64.255 242 60.127 246.478 C 54.273 252.828, 54.737 258.429, 61.323 260.933 C 64.807 262.257, 66.663 261.516, 71.546 256.850 L 75.592 252.984 79.046 256.589 C 83.373 261.105, 86.191 262.258, 89.669 260.936 C 96.264 258.428, 96.730 252.832, 90.873 246.478 L 86.745 242 90.873 237.522 C 96.469 231.451, 96.474 226.331, 90.887 223.442 C 87.012 221.438, 83.997 222.395, 79.421 227.081 L 75.585 231.009 71.543 227.071 C 67.061 222.704, 63.521 221.441, 60.500 223.131 M 446.500 235.155 C 439.185 239.155, 441.346 249, 449.539 249 C 457.556 249, 460.027 239.134, 452.928 235.463 C 449.594 233.739, 449.130 233.716, 446.500 235.155 M 77.112 328.250 C 72.229 331.702, 6.883 404.064, 5.350 407.718 C 2.285 415.023, 4.268 423.394, 10.324 428.711 C 15.117 432.920, 19.448 433.988, 31.750 433.994 C 39.364 433.999, 42 434.326, 42 435.269 C 42 435.967, 38.855 443.055, 35.011 451.019 C 31.167 458.984, 28.017 466.483, 28.011 467.685 C 27.981 473.616, 32.381 479.487, 37.990 480.997 C 45.225 482.946, 46.521 481.964, 77.269 451.250 C 103.034 425.513, 106.201 421.996, 107.489 417.692 C 109.662 410.425, 107.912 404.030, 102.339 398.872 C 97.646 394.528, 95.665 394, 84.066 394 C 77.934 394, 73 393.587, 73 393.073 C 73 392.563, 78.513 381.011, 85.250 367.402 C 98.436 340.769, 99.363 337.537, 95.511 331.656 C 91.675 325.803, 82.879 324.174, 77.112 328.250 M 420.893 327.497 C 417.145 329.534, 414.696 333.798, 414.591 338.469 C 414.518 341.737, 416.874 347.336, 426.750 367.361 C 433.488 381.022, 439 392.604, 439 393.099 C 439 393.595, 434.028 394, 427.950 394 C 420.382 394, 416.050 394.444, 414.200 395.411 C 411.037 397.063, 406.774 401.474, 404.979 404.951 C 403.224 408.352, 403.396 416.947, 405.291 420.523 C 406.158 422.161, 419.613 436.212, 435.190 451.750 C 465.447 481.929, 466.790 482.941, 474.010 480.997 C 479.563 479.502, 484 473.643, 484 467.806 C 484 466.671, 480.850 459.108, 477 451 C 473.150 442.892, 470 435.796, 470 435.232 C 470 434.605, 474.772 434.068, 482.250 433.853 C 496.039 433.456, 498.953 432.390, 504.287 425.789 C 507.765 421.486, 508.928 414.343, 507.069 408.708 C 505.816 404.912, 440.756 332.386, 434.894 328.250 C 431.200 325.645, 424.923 325.307, 420.893 327.497 M 46.918 383.105 C 31.838 399.661, 19.388 413.723, 19.251 414.354 C 18.497 417.830, 20.670 418.356, 39.025 419.135 C 66.244 420.290, 66.441 420.587, 55.393 443.839 C 51.857 451.281, 49.174 457.174, 49.431 456.935 C 49.688 456.696, 59.613 446.827, 71.487 435.004 C 87.227 419.330, 92.997 412.965, 92.787 411.504 C 92.516 409.609, 91.550 409.472, 75 408.988 C 65.375 408.706, 56.737 408.105, 55.805 407.652 C 53.144 406.359, 52.117 402.023, 53.518 398 C 54.189 396.075, 59.323 385.339, 64.927 374.142 C 70.532 362.945, 74.942 353.608, 74.727 353.393 C 74.511 353.178, 61.998 366.548, 46.918 383.105 M 437 353.432 C 437 353.669, 441.950 363.866, 448 376.090 C 460.022 400.381, 460.842 403.406, 456.365 406.927 C 453.936 408.838, 452.413 409, 436.834 409 C 422.471 409, 419.848 409.233, 419.340 410.555 C 419.012 411.411, 419.139 412.908, 419.622 413.883 C 420.105 414.858, 430.057 425.012, 441.737 436.448 L 462.975 457.240 456.349 443.370 C 452.705 435.741, 449.711 428.241, 449.695 426.702 C 449.635 420.838, 454.761 419.262, 474.500 419.073 C 490.369 418.922, 494.566 417.603, 492.252 413.494 C 491.384 411.953, 437.883 353, 437.352 353 C 437.159 353, 437 353.194, 437 353.432 M 196.153 430.750 C 192.964 433.449, 192.526 437.127, 195.016 440.293 C 199.138 445.533, 207.019 442.983, 206.985 436.421 C 206.966 432.941, 206.232 431.684, 203.316 430.150 C 200.299 428.562, 198.568 428.707, 196.153 430.750 M 234 431 C 231.446 433.554, 231.355 439.106, 233.829 441.345 C 236.711 443.953, 241.495 443.458, 243.984 440.293 C 249.165 433.707, 239.909 425.091, 234 431 M 272.455 431.455 C 267.691 436.218, 270.621 443, 277.443 443 C 283.822 443, 286.433 435.059, 281.365 431.073 C 277.905 428.351, 275.453 428.456, 272.455 431.455 M 310.455 431.455 C 307.456 434.453, 307.351 436.905, 310.073 440.365 C 314.227 445.646, 322 442.913, 322 436.171 C 322 429.617, 315.108 426.801, 310.455 431.455 M 183.215 486.250 L 183.500 496.500 258 496.500 L 332.500 496.500 332.785 486.250 L 333.070 476 258 476 L 182.930 476 183.215 486.250" stroke="none" fill="#040404" fill-rule="evenodd"/><path d="M 315.677 17.607 C 319.974 23.770, 320 24.261, 320 99.649 L 320 172 330 172 L 340 172 340 162.567 C 340 154.235, 339.782 153.066, 338.132 152.542 C 337.104 152.216, 335.417 151.014, 334.382 149.870 C 332.594 147.896, 332.475 144.717, 332 86.468 C 331.508 26.082, 331.468 25.102, 329.395 22.322 C 326.742 18.764, 322.611 16.355, 317.580 15.432 L 313.660 14.714 315.677 17.607 M 169.850 37.609 C 170.593 37.953, 172.276 40.543, 173.590 43.367 L 175.980 48.500 175.990 113.282 C 175.998 166.057, 176.256 178.676, 177.379 181.364 C 178.959 185.147, 183.388 189, 186.154 189 C 187.986 189, 188.032 186.986, 187.770 118.250 L 187.500 47.500 185.171 44.235 C 182.334 40.257, 178.616 38.230, 172.855 37.521 C 170.460 37.227, 169.108 37.266, 169.850 37.609 M 217.850 122.696 C 218.593 122.991, 220.276 125.543, 221.590 128.367 C 223.962 133.460, 223.981 133.765, 223.990 167.384 C 224.001 203.200, 223.606 206.975, 219.378 211.537 L 217.095 214 219.836 214 C 223.650 214, 230.978 210.056, 233.441 206.677 C 235.428 203.952, 235.500 202.611, 235.500 168.177 L 235.500 132.500 233.099 129.133 C 230.385 125.329, 223.979 122.016, 219.500 122.101 C 217.850 122.132, 217.108 122.400, 217.850 122.696 M 267.378 124.463 C 271.216 128.604, 272 133.507, 272 153.366 L 272 172 278.058 172 L 284.117 172 283.808 152.070 C 283.526 133.807, 283.328 131.904, 281.441 129.320 C 278.976 125.943, 271.648 122, 267.836 122 L 265.095 122 267.378 124.463 M 356.447 191.750 C 359.388 196.205, 360.055 199.007, 368.058 240.500 C 373.690 269.696, 374.190 273.357, 373.766 282.275 C 373.338 291.290, 372.980 292.690, 369.161 300.275 C 365.771 307.009, 361.758 312.125, 347.018 328.500 C 336.367 340.332, 327.767 350.840, 325.959 354.230 C 321.848 361.941, 320.038 371.236, 320.017 384.750 L 320 396 325.864 396 L 331.728 396 332.258 381.250 C 332.840 365.044, 334.574 357.614, 339.902 348.500 C 341.510 345.750, 351.100 334.225, 361.213 322.890 C 390.212 290.387, 389.930 291.765, 379.030 236 C 373.385 207.123, 371.398 198.742, 369.514 195.871 C 367.049 192.116, 360.071 188, 356.170 188 L 353.972 188 356.447 191.750 M 244 220.313 C 244 220.485, 245.463 221.948, 247.250 223.563 L 250.500 226.500 247.563 223.250 C 244.825 220.221, 244 219.540, 244 220.313 M 321.437 242.250 L 318.500 245.500 321.750 242.563 C 324.779 239.825, 325.460 239, 324.687 239 C 324.515 239, 323.052 240.463, 321.437 242.250 M 209.885 403.290 C 210.322 403.724, 214.914 403.946, 220.090 403.783 L 229.500 403.487 219.296 402.993 C 213.683 402.722, 209.449 402.855, 209.885 403.290 M 320 487.050 L 320 497.100 325.750 496.800 L 331.500 496.500 331.786 486.750 L 332.072 477 326.036 477 L 320 477 320 487.050" stroke="none" fill="#ecdfcc" fill-rule="evenodd"/></svg>